<mxfile host="app.diagrams.net" modified="2024-03-27T04:48:43.238Z" agent="Mozilla/5.0 (Windows NT 10.0; Win64; x64) AppleWebKit/537.36 (KHTML, like Gecko) Chrome/123.0.0.0 Safari/537.36" etag="PdO0dYQtpjPMIzoEsyrS" version="24.2.0" type="device">
  <diagram name="Page-1" id="2YBvvXClWsGukQMizWep">
    <mxGraphModel dx="2524" dy="2972" grid="1" gridSize="10" guides="1" tooltips="1" connect="1" arrows="1" fold="1" page="1" pageScale="1" pageWidth="850" pageHeight="1100" math="0" shadow="0">
      <root>
        <mxCell id="0" />
        <mxCell id="1" parent="0" />
        <mxCell id="LU9NJdWoO0VZGk0qoHhr-41" value="Authentication Service" style="shape=umlLifeline;perimeter=lifelinePerimeter;whiteSpace=wrap;html=1;container=0;dropTarget=0;collapsible=0;recursiveResize=0;outlineConnect=0;portConstraint=eastwest;newEdgeStyle={&quot;edgeStyle&quot;:&quot;elbowEdgeStyle&quot;,&quot;elbow&quot;:&quot;vertical&quot;,&quot;curved&quot;:0,&quot;rounded&quot;:0};" parent="1" vertex="1">
          <mxGeometry x="65" y="560" width="100" height="360" as="geometry" />
        </mxCell>
        <mxCell id="LU9NJdWoO0VZGk0qoHhr-42" value="" style="html=1;points=[];perimeter=orthogonalPerimeter;outlineConnect=0;targetShapes=umlLifeline;portConstraint=eastwest;newEdgeStyle={&quot;edgeStyle&quot;:&quot;elbowEdgeStyle&quot;,&quot;elbow&quot;:&quot;vertical&quot;,&quot;curved&quot;:0,&quot;rounded&quot;:0};" parent="LU9NJdWoO0VZGk0qoHhr-41" vertex="1">
          <mxGeometry x="45" y="80" width="10" height="100" as="geometry" />
        </mxCell>
        <mxCell id="aM9ryv3xv72pqoxQDRHE-1" value="Application" style="shape=umlLifeline;perimeter=lifelinePerimeter;whiteSpace=wrap;html=1;container=0;dropTarget=0;collapsible=0;recursiveResize=0;outlineConnect=0;portConstraint=eastwest;newEdgeStyle={&quot;edgeStyle&quot;:&quot;elbowEdgeStyle&quot;,&quot;elbow&quot;:&quot;vertical&quot;,&quot;curved&quot;:0,&quot;rounded&quot;:0};" parent="1" vertex="1">
          <mxGeometry x="-100" y="20" width="100" height="360" as="geometry" />
        </mxCell>
        <mxCell id="aM9ryv3xv72pqoxQDRHE-2" value="" style="html=1;points=[];perimeter=orthogonalPerimeter;outlineConnect=0;targetShapes=umlLifeline;portConstraint=eastwest;newEdgeStyle={&quot;edgeStyle&quot;:&quot;elbowEdgeStyle&quot;,&quot;elbow&quot;:&quot;vertical&quot;,&quot;curved&quot;:0,&quot;rounded&quot;:0};" parent="aM9ryv3xv72pqoxQDRHE-1" vertex="1">
          <mxGeometry x="45" y="70" width="10" height="270" as="geometry" />
        </mxCell>
        <mxCell id="aM9ryv3xv72pqoxQDRHE-3" value="" style="html=1;verticalAlign=bottom;startArrow=oval;endArrow=block;startSize=8;edgeStyle=elbowEdgeStyle;elbow=vertical;curved=0;rounded=0;" parent="aM9ryv3xv72pqoxQDRHE-1" target="aM9ryv3xv72pqoxQDRHE-2" edge="1">
          <mxGeometry relative="1" as="geometry">
            <mxPoint x="-80" y="70" as="sourcePoint" />
            <Array as="points">
              <mxPoint x="-80" y="70" />
            </Array>
          </mxGeometry>
        </mxCell>
        <mxCell id="LU9NJdWoO0VZGk0qoHhr-10" value="User Action" style="edgeLabel;html=1;align=center;verticalAlign=middle;resizable=0;points=[];" parent="aM9ryv3xv72pqoxQDRHE-3" vertex="1" connectable="0">
          <mxGeometry x="0.0331" y="1" relative="1" as="geometry">
            <mxPoint x="-4" y="-9" as="offset" />
          </mxGeometry>
        </mxCell>
        <mxCell id="aM9ryv3xv72pqoxQDRHE-5" value="API Gateway" style="shape=umlLifeline;perimeter=lifelinePerimeter;whiteSpace=wrap;html=1;container=0;dropTarget=0;collapsible=0;recursiveResize=0;outlineConnect=0;portConstraint=eastwest;newEdgeStyle={&quot;edgeStyle&quot;:&quot;elbowEdgeStyle&quot;,&quot;elbow&quot;:&quot;vertical&quot;,&quot;curved&quot;:0,&quot;rounded&quot;:0};" parent="1" vertex="1">
          <mxGeometry x="390" y="20" width="100" height="360" as="geometry" />
        </mxCell>
        <mxCell id="LU9NJdWoO0VZGk0qoHhr-21" value="" style="html=1;points=[];perimeter=orthogonalPerimeter;outlineConnect=0;targetShapes=umlLifeline;portConstraint=eastwest;newEdgeStyle={&quot;edgeStyle&quot;:&quot;elbowEdgeStyle&quot;,&quot;elbow&quot;:&quot;vertical&quot;,&quot;curved&quot;:0,&quot;rounded&quot;:0};" parent="aM9ryv3xv72pqoxQDRHE-5" vertex="1">
          <mxGeometry x="45" y="130" width="10" height="130" as="geometry" />
        </mxCell>
        <mxCell id="aM9ryv3xv72pqoxQDRHE-7" value="View Request" style="html=1;verticalAlign=bottom;endArrow=block;edgeStyle=elbowEdgeStyle;elbow=horizontal;curved=0;rounded=0;" parent="1" source="aM9ryv3xv72pqoxQDRHE-2" target="aM9ryv3xv72pqoxQDRHE-6" edge="1">
          <mxGeometry relative="1" as="geometry">
            <mxPoint x="-30" y="100" as="sourcePoint" />
            <Array as="points">
              <mxPoint x="20" y="100" />
            </Array>
            <mxPoint x="40" y="100" as="targetPoint" />
          </mxGeometry>
        </mxCell>
        <mxCell id="aM9ryv3xv72pqoxQDRHE-8" value="return" style="html=1;verticalAlign=bottom;endArrow=open;dashed=1;endSize=8;edgeStyle=elbowEdgeStyle;elbow=vertical;curved=0;rounded=0;" parent="1" edge="1">
          <mxGeometry relative="1" as="geometry">
            <mxPoint x="1030" y="100.83" as="targetPoint" />
            <Array as="points">
              <mxPoint x="1100" y="100.83" />
            </Array>
            <mxPoint x="1160" y="100.83" as="sourcePoint" />
          </mxGeometry>
        </mxCell>
        <mxCell id="aM9ryv3xv72pqoxQDRHE-9" value="callback" style="html=1;verticalAlign=bottom;endArrow=block;edgeStyle=elbowEdgeStyle;elbow=vertical;curved=0;rounded=0;" parent="1" edge="1">
          <mxGeometry relative="1" as="geometry">
            <mxPoint x="1140" y="50" as="sourcePoint" />
            <Array as="points">
              <mxPoint x="1080" y="50" />
            </Array>
            <mxPoint x="1010" y="50" as="targetPoint" />
          </mxGeometry>
        </mxCell>
        <mxCell id="aM9ryv3xv72pqoxQDRHE-10" value="return" style="html=1;verticalAlign=bottom;endArrow=open;dashed=1;endSize=8;edgeStyle=elbowEdgeStyle;elbow=vertical;curved=0;rounded=0;" parent="1" edge="1">
          <mxGeometry relative="1" as="geometry">
            <mxPoint x="990" y="100.83" as="targetPoint" />
            <Array as="points">
              <mxPoint x="920" y="100.83" />
            </Array>
            <mxPoint x="860" y="100.83" as="sourcePoint" />
          </mxGeometry>
        </mxCell>
        <mxCell id="LU9NJdWoO0VZGk0qoHhr-1" value="Authentication Service" style="shape=umlLifeline;perimeter=lifelinePerimeter;whiteSpace=wrap;html=1;container=0;dropTarget=0;collapsible=0;recursiveResize=0;outlineConnect=0;portConstraint=eastwest;newEdgeStyle={&quot;edgeStyle&quot;:&quot;elbowEdgeStyle&quot;,&quot;elbow&quot;:&quot;vertical&quot;,&quot;curved&quot;:0,&quot;rounded&quot;:0};" parent="1" vertex="1">
          <mxGeometry x="795" y="140" width="100" height="440" as="geometry" />
        </mxCell>
        <mxCell id="LU9NJdWoO0VZGk0qoHhr-3" value="Event Store" style="shape=umlLifeline;perimeter=lifelinePerimeter;whiteSpace=wrap;html=1;container=0;dropTarget=0;collapsible=0;recursiveResize=0;outlineConnect=0;portConstraint=eastwest;newEdgeStyle={&quot;edgeStyle&quot;:&quot;elbowEdgeStyle&quot;,&quot;elbow&quot;:&quot;vertical&quot;,&quot;curved&quot;:0,&quot;rounded&quot;:0};" parent="1" vertex="1">
          <mxGeometry x="920" y="140" width="100" height="440" as="geometry" />
        </mxCell>
        <mxCell id="LU9NJdWoO0VZGk0qoHhr-5" value="Database" style="shape=umlLifeline;perimeter=lifelinePerimeter;whiteSpace=wrap;html=1;container=0;dropTarget=0;collapsible=0;recursiveResize=0;outlineConnect=0;portConstraint=eastwest;newEdgeStyle={&quot;edgeStyle&quot;:&quot;elbowEdgeStyle&quot;,&quot;elbow&quot;:&quot;vertical&quot;,&quot;curved&quot;:0,&quot;rounded&quot;:0};" parent="1" vertex="1">
          <mxGeometry x="1050" y="140" width="100" height="440" as="geometry" />
        </mxCell>
        <mxCell id="LU9NJdWoO0VZGk0qoHhr-7" value="Model" style="shape=umlLifeline;perimeter=lifelinePerimeter;whiteSpace=wrap;html=1;container=0;dropTarget=0;collapsible=0;recursiveResize=0;outlineConnect=0;portConstraint=eastwest;newEdgeStyle={&quot;edgeStyle&quot;:&quot;elbowEdgeStyle&quot;,&quot;elbow&quot;:&quot;vertical&quot;,&quot;curved&quot;:0,&quot;rounded&quot;:0};" parent="1" vertex="1">
          <mxGeometry x="270" y="20" width="100" height="360" as="geometry" />
        </mxCell>
        <mxCell id="LU9NJdWoO0VZGk0qoHhr-14" value="" style="html=1;points=[];perimeter=orthogonalPerimeter;outlineConnect=0;targetShapes=umlLifeline;portConstraint=eastwest;newEdgeStyle={&quot;edgeStyle&quot;:&quot;elbowEdgeStyle&quot;,&quot;elbow&quot;:&quot;vertical&quot;,&quot;curved&quot;:0,&quot;rounded&quot;:0};" parent="LU9NJdWoO0VZGk0qoHhr-7" vertex="1">
          <mxGeometry x="45" y="120" width="10" height="160" as="geometry" />
        </mxCell>
        <mxCell id="LU9NJdWoO0VZGk0qoHhr-8" value="Controller" style="shape=umlLifeline;perimeter=lifelinePerimeter;whiteSpace=wrap;html=1;container=0;dropTarget=0;collapsible=0;recursiveResize=0;outlineConnect=0;portConstraint=eastwest;newEdgeStyle={&quot;edgeStyle&quot;:&quot;elbowEdgeStyle&quot;,&quot;elbow&quot;:&quot;vertical&quot;,&quot;curved&quot;:0,&quot;rounded&quot;:0};" parent="1" vertex="1">
          <mxGeometry x="150" y="20" width="100" height="360" as="geometry" />
        </mxCell>
        <mxCell id="LU9NJdWoO0VZGk0qoHhr-13" value="" style="html=1;points=[];perimeter=orthogonalPerimeter;outlineConnect=0;targetShapes=umlLifeline;portConstraint=eastwest;newEdgeStyle={&quot;edgeStyle&quot;:&quot;elbowEdgeStyle&quot;,&quot;elbow&quot;:&quot;vertical&quot;,&quot;curved&quot;:0,&quot;rounded&quot;:0};" parent="LU9NJdWoO0VZGk0qoHhr-8" vertex="1">
          <mxGeometry x="45" y="100" width="10" height="190" as="geometry" />
        </mxCell>
        <mxCell id="LU9NJdWoO0VZGk0qoHhr-9" value="View" style="shape=umlLifeline;perimeter=lifelinePerimeter;whiteSpace=wrap;html=1;container=0;dropTarget=0;collapsible=0;recursiveResize=0;outlineConnect=0;portConstraint=eastwest;newEdgeStyle={&quot;edgeStyle&quot;:&quot;elbowEdgeStyle&quot;,&quot;elbow&quot;:&quot;vertical&quot;,&quot;curved&quot;:0,&quot;rounded&quot;:0};" parent="1" vertex="1">
          <mxGeometry x="20" y="20" width="100" height="360" as="geometry" />
        </mxCell>
        <mxCell id="aM9ryv3xv72pqoxQDRHE-6" value="" style="html=1;points=[];perimeter=orthogonalPerimeter;outlineConnect=0;targetShapes=umlLifeline;portConstraint=eastwest;newEdgeStyle={&quot;edgeStyle&quot;:&quot;elbowEdgeStyle&quot;,&quot;elbow&quot;:&quot;vertical&quot;,&quot;curved&quot;:0,&quot;rounded&quot;:0};" parent="LU9NJdWoO0VZGk0qoHhr-9" vertex="1">
          <mxGeometry x="45" y="80" width="10" height="220" as="geometry" />
        </mxCell>
        <mxCell id="LU9NJdWoO0VZGk0qoHhr-16" value="Model Request Sent to&lt;div&gt;Controller&lt;/div&gt;" style="html=1;verticalAlign=bottom;endArrow=block;edgeStyle=elbowEdgeStyle;elbow=vertical;curved=0;rounded=0;" parent="1" source="aM9ryv3xv72pqoxQDRHE-6" target="LU9NJdWoO0VZGk0qoHhr-13" edge="1">
          <mxGeometry relative="1" as="geometry">
            <mxPoint x="90" y="120" as="sourcePoint" />
            <Array as="points">
              <mxPoint x="155" y="120" />
            </Array>
            <mxPoint x="180" y="120" as="targetPoint" />
          </mxGeometry>
        </mxCell>
        <mxCell id="LU9NJdWoO0VZGk0qoHhr-17" value="Model Request" style="html=1;verticalAlign=bottom;endArrow=block;edgeStyle=elbowEdgeStyle;elbow=vertical;curved=0;rounded=0;" parent="1" source="LU9NJdWoO0VZGk0qoHhr-13" target="LU9NJdWoO0VZGk0qoHhr-14" edge="1">
          <mxGeometry relative="1" as="geometry">
            <mxPoint x="210" y="140" as="sourcePoint" />
            <Array as="points">
              <mxPoint x="290" y="140" />
            </Array>
            <mxPoint x="250" y="150" as="targetPoint" />
          </mxGeometry>
        </mxCell>
        <mxCell id="LU9NJdWoO0VZGk0qoHhr-18" value="A service" style="shape=umlLifeline;perimeter=lifelinePerimeter;whiteSpace=wrap;html=1;container=0;dropTarget=0;collapsible=0;recursiveResize=0;outlineConnect=0;portConstraint=eastwest;newEdgeStyle={&quot;edgeStyle&quot;:&quot;elbowEdgeStyle&quot;,&quot;elbow&quot;:&quot;vertical&quot;,&quot;curved&quot;:0,&quot;rounded&quot;:0};" parent="1" vertex="1">
          <mxGeometry x="540" y="20" width="100" height="370" as="geometry" />
        </mxCell>
        <mxCell id="LU9NJdWoO0VZGk0qoHhr-23" value="" style="html=1;points=[];perimeter=orthogonalPerimeter;outlineConnect=0;targetShapes=umlLifeline;portConstraint=eastwest;newEdgeStyle={&quot;edgeStyle&quot;:&quot;elbowEdgeStyle&quot;,&quot;elbow&quot;:&quot;vertical&quot;,&quot;curved&quot;:0,&quot;rounded&quot;:0};" parent="LU9NJdWoO0VZGk0qoHhr-18" vertex="1">
          <mxGeometry x="45" y="150" width="10" height="90" as="geometry" />
        </mxCell>
        <mxCell id="LU9NJdWoO0VZGk0qoHhr-19" value="&amp;nbsp;Requesting&amp;nbsp;&lt;div&gt;Information&lt;/div&gt;" style="html=1;verticalAlign=bottom;endArrow=block;edgeStyle=elbowEdgeStyle;elbow=vertical;curved=0;rounded=0;" parent="1" source="LU9NJdWoO0VZGk0qoHhr-14" target="LU9NJdWoO0VZGk0qoHhr-21" edge="1">
          <mxGeometry relative="1" as="geometry">
            <mxPoint x="325" y="150" as="sourcePoint" />
            <Array as="points">
              <mxPoint x="390" y="150" />
              <mxPoint x="415" y="140" />
            </Array>
            <mxPoint x="435" y="150" as="targetPoint" />
          </mxGeometry>
        </mxCell>
        <mxCell id="LU9NJdWoO0VZGk0qoHhr-22" value="Service Based&amp;nbsp;&lt;div&gt;Action Request&lt;/div&gt;" style="html=1;verticalAlign=bottom;endArrow=block;edgeStyle=elbowEdgeStyle;elbow=vertical;curved=0;rounded=0;" parent="1" source="LU9NJdWoO0VZGk0qoHhr-21" target="LU9NJdWoO0VZGk0qoHhr-23" edge="1">
          <mxGeometry relative="1" as="geometry">
            <mxPoint x="450" y="170" as="sourcePoint" />
            <Array as="points">
              <mxPoint x="515" y="170" />
              <mxPoint x="540" y="160" />
            </Array>
            <mxPoint x="560" y="170" as="targetPoint" />
          </mxGeometry>
        </mxCell>
        <mxCell id="LU9NJdWoO0VZGk0qoHhr-24" value="Action Complete&lt;div&gt;Returning Requested Info&lt;/div&gt;" style="html=1;verticalAlign=bottom;endArrow=block;edgeStyle=elbowEdgeStyle;elbow=vertical;curved=0;rounded=0;" parent="1" source="LU9NJdWoO0VZGk0qoHhr-23" target="LU9NJdWoO0VZGk0qoHhr-21" edge="1">
          <mxGeometry relative="1" as="geometry">
            <mxPoint x="570" y="260" as="sourcePoint" />
            <Array as="points">
              <mxPoint x="510" y="260" />
            </Array>
            <mxPoint x="450" y="260" as="targetPoint" />
          </mxGeometry>
        </mxCell>
        <mxCell id="LU9NJdWoO0VZGk0qoHhr-25" value="Service Based Action" style="html=1;verticalAlign=bottom;endArrow=block;edgeStyle=elbowEdgeStyle;elbow=vertical;curved=0;rounded=0;" parent="1" edge="1">
          <mxGeometry relative="1" as="geometry">
            <mxPoint x="830" y="60" as="sourcePoint" />
            <Array as="points">
              <mxPoint x="900" y="60" />
              <mxPoint x="925" y="50" />
            </Array>
            <mxPoint x="960" y="60" as="targetPoint" />
          </mxGeometry>
        </mxCell>
        <mxCell id="LU9NJdWoO0VZGk0qoHhr-26" value="Request Return" style="html=1;verticalAlign=bottom;endArrow=block;edgeStyle=elbowEdgeStyle;elbow=vertical;curved=0;rounded=0;" parent="1" source="LU9NJdWoO0VZGk0qoHhr-21" target="LU9NJdWoO0VZGk0qoHhr-14" edge="1">
          <mxGeometry relative="1" as="geometry">
            <mxPoint x="410" y="280" as="sourcePoint" />
            <Array as="points">
              <mxPoint x="350" y="280" />
            </Array>
            <mxPoint x="280" y="280" as="targetPoint" />
          </mxGeometry>
        </mxCell>
        <mxCell id="LU9NJdWoO0VZGk0qoHhr-27" value="Request Return" style="html=1;verticalAlign=bottom;endArrow=block;edgeStyle=elbowEdgeStyle;elbow=vertical;curved=0;rounded=0;" parent="1" source="LU9NJdWoO0VZGk0qoHhr-14" target="LU9NJdWoO0VZGk0qoHhr-13" edge="1">
          <mxGeometry relative="1" as="geometry">
            <mxPoint x="290" y="300" as="sourcePoint" />
            <Array as="points">
              <mxPoint x="225" y="300" />
            </Array>
            <mxPoint x="200" y="300" as="targetPoint" />
          </mxGeometry>
        </mxCell>
        <mxCell id="LU9NJdWoO0VZGk0qoHhr-28" value="Request Return" style="html=1;verticalAlign=bottom;endArrow=block;edgeStyle=elbowEdgeStyle;elbow=vertical;curved=0;rounded=0;" parent="1" source="LU9NJdWoO0VZGk0qoHhr-13" target="aM9ryv3xv72pqoxQDRHE-6" edge="1">
          <mxGeometry relative="1" as="geometry">
            <mxPoint x="190" y="310" as="sourcePoint" />
            <Array as="points">
              <mxPoint x="105" y="310" />
            </Array>
            <mxPoint x="80" y="310" as="targetPoint" />
          </mxGeometry>
        </mxCell>
        <mxCell id="LU9NJdWoO0VZGk0qoHhr-29" value="View is Returned" style="html=1;verticalAlign=bottom;endArrow=block;edgeStyle=elbowEdgeStyle;elbow=vertical;curved=0;rounded=0;" parent="1" source="aM9ryv3xv72pqoxQDRHE-6" target="aM9ryv3xv72pqoxQDRHE-2" edge="1">
          <mxGeometry relative="1" as="geometry">
            <mxPoint x="40" y="320" as="sourcePoint" />
            <Array as="points">
              <mxPoint x="-20" y="320" />
            </Array>
            <mxPoint x="-90" y="320" as="targetPoint" />
          </mxGeometry>
        </mxCell>
        <mxCell id="LU9NJdWoO0VZGk0qoHhr-30" value="API Gateway" style="shape=umlLifeline;perimeter=lifelinePerimeter;whiteSpace=wrap;html=1;container=0;dropTarget=0;collapsible=0;recursiveResize=0;outlineConnect=0;portConstraint=eastwest;newEdgeStyle={&quot;edgeStyle&quot;:&quot;elbowEdgeStyle&quot;,&quot;elbow&quot;:&quot;vertical&quot;,&quot;curved&quot;:0,&quot;rounded&quot;:0};" parent="1" vertex="1">
          <mxGeometry x="-80" y="530" width="100" height="390" as="geometry" />
        </mxCell>
        <mxCell id="LU9NJdWoO0VZGk0qoHhr-31" value="" style="html=1;points=[];perimeter=orthogonalPerimeter;outlineConnect=0;targetShapes=umlLifeline;portConstraint=eastwest;newEdgeStyle={&quot;edgeStyle&quot;:&quot;elbowEdgeStyle&quot;,&quot;elbow&quot;:&quot;vertical&quot;,&quot;curved&quot;:0,&quot;rounded&quot;:0};" parent="LU9NJdWoO0VZGk0qoHhr-30" vertex="1">
          <mxGeometry x="45" y="100" width="10" height="190" as="geometry" />
        </mxCell>
        <mxCell id="LU9NJdWoO0VZGk0qoHhr-32" value="" style="html=1;verticalAlign=bottom;startArrow=oval;endArrow=block;startSize=8;edgeStyle=elbowEdgeStyle;elbow=vertical;curved=0;rounded=0;" parent="LU9NJdWoO0VZGk0qoHhr-30" target="LU9NJdWoO0VZGk0qoHhr-31" edge="1">
          <mxGeometry relative="1" as="geometry">
            <mxPoint x="-110" y="100" as="sourcePoint" />
            <Array as="points">
              <mxPoint x="-30" y="100" />
            </Array>
          </mxGeometry>
        </mxCell>
        <mxCell id="LU9NJdWoO0VZGk0qoHhr-33" value="Required information sent&amp;nbsp;&lt;div&gt;through MVC&amp;nbsp;&lt;/div&gt;" style="edgeLabel;html=1;align=center;verticalAlign=middle;resizable=0;points=[];" parent="LU9NJdWoO0VZGk0qoHhr-32" vertex="1" connectable="0">
          <mxGeometry x="0.0331" y="1" relative="1" as="geometry">
            <mxPoint x="-14" y="-19" as="offset" />
          </mxGeometry>
        </mxCell>
        <mxCell id="LU9NJdWoO0VZGk0qoHhr-36" value="Information is used to&lt;div&gt;&amp;nbsp;Authenticate User&lt;/div&gt;" style="html=1;verticalAlign=bottom;endArrow=block;edgeStyle=elbowEdgeStyle;elbow=horizontal;curved=0;rounded=0;" parent="1" source="LU9NJdWoO0VZGk0qoHhr-31" target="LU9NJdWoO0VZGk0qoHhr-42" edge="1">
          <mxGeometry relative="1" as="geometry">
            <mxPoint x="-10" y="640" as="sourcePoint" />
            <Array as="points">
              <mxPoint x="40" y="640" />
            </Array>
            <mxPoint x="60" y="640" as="targetPoint" />
          </mxGeometry>
        </mxCell>
        <mxCell id="LU9NJdWoO0VZGk0qoHhr-37" value="Database" style="shape=umlLifeline;perimeter=lifelinePerimeter;whiteSpace=wrap;html=1;container=0;dropTarget=0;collapsible=0;recursiveResize=0;outlineConnect=0;portConstraint=eastwest;newEdgeStyle={&quot;edgeStyle&quot;:&quot;elbowEdgeStyle&quot;,&quot;elbow&quot;:&quot;vertical&quot;,&quot;curved&quot;:0,&quot;rounded&quot;:0};" parent="1" vertex="1">
          <mxGeometry x="350" y="560" width="100" height="360" as="geometry" />
        </mxCell>
        <mxCell id="LU9NJdWoO0VZGk0qoHhr-38" value="" style="html=1;points=[];perimeter=orthogonalPerimeter;outlineConnect=0;targetShapes=umlLifeline;portConstraint=eastwest;newEdgeStyle={&quot;edgeStyle&quot;:&quot;elbowEdgeStyle&quot;,&quot;elbow&quot;:&quot;vertical&quot;,&quot;curved&quot;:0,&quot;rounded&quot;:0};" parent="LU9NJdWoO0VZGk0qoHhr-37" vertex="1">
          <mxGeometry x="45" y="150" width="10" height="90" as="geometry" />
        </mxCell>
        <mxCell id="LU9NJdWoO0VZGk0qoHhr-39" value="Event Store" style="shape=umlLifeline;perimeter=lifelinePerimeter;whiteSpace=wrap;html=1;container=0;dropTarget=0;collapsible=0;recursiveResize=0;outlineConnect=0;portConstraint=eastwest;newEdgeStyle={&quot;edgeStyle&quot;:&quot;elbowEdgeStyle&quot;,&quot;elbow&quot;:&quot;vertical&quot;,&quot;curved&quot;:0,&quot;rounded&quot;:0};" parent="1" vertex="1">
          <mxGeometry x="225" y="560" width="100" height="360" as="geometry" />
        </mxCell>
        <mxCell id="LU9NJdWoO0VZGk0qoHhr-40" value="" style="html=1;points=[];perimeter=orthogonalPerimeter;outlineConnect=0;targetShapes=umlLifeline;portConstraint=eastwest;newEdgeStyle={&quot;edgeStyle&quot;:&quot;elbowEdgeStyle&quot;,&quot;elbow&quot;:&quot;vertical&quot;,&quot;curved&quot;:0,&quot;rounded&quot;:0};" parent="LU9NJdWoO0VZGk0qoHhr-39" vertex="1">
          <mxGeometry x="45" y="100" width="10" height="30" as="geometry" />
        </mxCell>
        <mxCell id="LU9NJdWoO0VZGk0qoHhr-43" value="User authenticates&amp;nbsp;&lt;div&gt;successfully&lt;/div&gt;&lt;div&gt;Series of events is stored&lt;/div&gt;" style="html=1;verticalAlign=bottom;endArrow=block;edgeStyle=elbowEdgeStyle;elbow=vertical;curved=0;rounded=0;" parent="1" source="LU9NJdWoO0VZGk0qoHhr-42" target="LU9NJdWoO0VZGk0qoHhr-40" edge="1">
          <mxGeometry relative="1" as="geometry">
            <mxPoint x="110" y="660" as="sourcePoint" />
            <Array as="points">
              <mxPoint x="175" y="660" />
            </Array>
            <mxPoint x="200" y="660" as="targetPoint" />
          </mxGeometry>
        </mxCell>
        <mxCell id="LU9NJdWoO0VZGk0qoHhr-54" value="&lt;font style=&quot;font-size: 24px;&quot;&gt;&lt;b&gt;General Request Sequence&lt;/b&gt;&lt;/font&gt;" style="text;html=1;align=center;verticalAlign=middle;resizable=0;points=[];autosize=1;strokeColor=none;fillColor=none;" parent="1" vertex="1">
          <mxGeometry x="-110" y="-40" width="330" height="40" as="geometry" />
        </mxCell>
        <mxCell id="LU9NJdWoO0VZGk0qoHhr-55" value="&lt;font style=&quot;font-size: 24px;&quot;&gt;&lt;b&gt;Successful Account Creation After Webpage is loaded&lt;/b&gt;&lt;/font&gt;" style="text;html=1;align=center;verticalAlign=middle;resizable=0;points=[];autosize=1;strokeColor=none;fillColor=none;" parent="1" vertex="1">
          <mxGeometry x="-150" y="480" width="640" height="40" as="geometry" />
        </mxCell>
        <mxCell id="LU9NJdWoO0VZGk0qoHhr-58" value="Success" style="html=1;verticalAlign=bottom;endArrow=block;edgeStyle=elbowEdgeStyle;elbow=vertical;curved=0;rounded=0;" parent="1" source="LU9NJdWoO0VZGk0qoHhr-40" edge="1">
          <mxGeometry x="-0.1333" relative="1" as="geometry">
            <mxPoint x="265" y="690" as="sourcePoint" />
            <Array as="points">
              <mxPoint x="205" y="690" />
            </Array>
            <mxPoint x="120" y="690" as="targetPoint" />
            <mxPoint as="offset" />
          </mxGeometry>
        </mxCell>
        <mxCell id="LU9NJdWoO0VZGk0qoHhr-59" value="User information&amp;nbsp;&lt;div&gt;sent to database&lt;/div&gt;" style="html=1;verticalAlign=bottom;endArrow=block;edgeStyle=elbowEdgeStyle;elbow=vertical;curved=0;rounded=0;" parent="1" source="LU9NJdWoO0VZGk0qoHhr-42" target="LU9NJdWoO0VZGk0qoHhr-38" edge="1">
          <mxGeometry x="0.6" relative="1" as="geometry">
            <mxPoint x="150" y="710" as="sourcePoint" />
            <Array as="points">
              <mxPoint x="205" y="710" />
            </Array>
            <mxPoint x="300" y="710" as="targetPoint" />
            <mxPoint as="offset" />
          </mxGeometry>
        </mxCell>
        <mxCell id="LU9NJdWoO0VZGk0qoHhr-61" value="Information required for&amp;nbsp;&lt;div&gt;&lt;div&gt;new model Available&lt;/div&gt;&lt;/div&gt;" style="html=1;verticalAlign=bottom;endArrow=block;edgeStyle=elbowEdgeStyle;elbow=vertical;curved=0;rounded=0;" parent="1" source="LU9NJdWoO0VZGk0qoHhr-38" target="LU9NJdWoO0VZGk0qoHhr-31" edge="1">
          <mxGeometry x="-0.0714" relative="1" as="geometry">
            <mxPoint x="290" y="739.66" as="sourcePoint" />
            <Array as="points">
              <mxPoint x="230" y="800" />
            </Array>
            <mxPoint x="140" y="739.66" as="targetPoint" />
            <mxPoint as="offset" />
          </mxGeometry>
        </mxCell>
        <mxCell id="LU9NJdWoO0VZGk0qoHhr-63" value="Success Callback" style="html=1;verticalAlign=bottom;endArrow=block;edgeStyle=elbowEdgeStyle;elbow=vertical;curved=0;rounded=0;" parent="1" source="LU9NJdWoO0VZGk0qoHhr-42" target="LU9NJdWoO0VZGk0qoHhr-31" edge="1">
          <mxGeometry relative="1" as="geometry">
            <mxPoint x="100" y="739.76" as="sourcePoint" />
            <Array as="points">
              <mxPoint x="10" y="740" />
            </Array>
            <mxPoint x="-20" y="740" as="targetPoint" />
          </mxGeometry>
        </mxCell>
        <mxCell id="LU9NJdWoO0VZGk0qoHhr-65" value="New Model Information" style="html=1;verticalAlign=bottom;endArrow=block;edgeStyle=elbowEdgeStyle;elbow=vertical;curved=0;rounded=0;" parent="1" source="LU9NJdWoO0VZGk0qoHhr-31" edge="1">
          <mxGeometry x="-0.0917" relative="1" as="geometry">
            <mxPoint x="-60" y="820.14" as="sourcePoint" />
            <Array as="points" />
            <mxPoint x="-200" y="820" as="targetPoint" />
            <mxPoint as="offset" />
          </mxGeometry>
        </mxCell>
        <mxCell id="PMBpUnbIwR8fAhCMbHkn-37" value="Application" style="shape=umlLifeline;perimeter=lifelinePerimeter;whiteSpace=wrap;html=1;container=0;dropTarget=0;collapsible=0;recursiveResize=0;outlineConnect=0;portConstraint=eastwest;newEdgeStyle={&quot;edgeStyle&quot;:&quot;elbowEdgeStyle&quot;,&quot;elbow&quot;:&quot;vertical&quot;,&quot;curved&quot;:0,&quot;rounded&quot;:0};" parent="1" vertex="1">
          <mxGeometry x="-210" y="1110" width="100" height="610" as="geometry" />
        </mxCell>
        <mxCell id="PMBpUnbIwR8fAhCMbHkn-38" value="" style="html=1;points=[];perimeter=orthogonalPerimeter;outlineConnect=0;targetShapes=umlLifeline;portConstraint=eastwest;newEdgeStyle={&quot;edgeStyle&quot;:&quot;elbowEdgeStyle&quot;,&quot;elbow&quot;:&quot;vertical&quot;,&quot;curved&quot;:0,&quot;rounded&quot;:0};" parent="PMBpUnbIwR8fAhCMbHkn-37" vertex="1">
          <mxGeometry x="45" y="70" width="10" height="510" as="geometry" />
        </mxCell>
        <mxCell id="PMBpUnbIwR8fAhCMbHkn-39" value="" style="html=1;verticalAlign=bottom;startArrow=oval;endArrow=block;startSize=8;edgeStyle=elbowEdgeStyle;elbow=vertical;curved=0;rounded=0;" parent="PMBpUnbIwR8fAhCMbHkn-37" target="PMBpUnbIwR8fAhCMbHkn-38" edge="1">
          <mxGeometry relative="1" as="geometry">
            <mxPoint x="-120" y="70" as="sourcePoint" />
            <Array as="points">
              <mxPoint x="-80" y="70" />
            </Array>
          </mxGeometry>
        </mxCell>
        <mxCell id="PMBpUnbIwR8fAhCMbHkn-40" value="User opens Main Page" style="edgeLabel;html=1;align=center;verticalAlign=middle;resizable=0;points=[];" parent="PMBpUnbIwR8fAhCMbHkn-39" vertex="1" connectable="0">
          <mxGeometry x="0.0331" y="1" relative="1" as="geometry">
            <mxPoint x="-4" y="-9" as="offset" />
          </mxGeometry>
        </mxCell>
        <mxCell id="PMBpUnbIwR8fAhCMbHkn-41" value="API Gateway" style="shape=umlLifeline;perimeter=lifelinePerimeter;whiteSpace=wrap;html=1;container=0;dropTarget=0;collapsible=0;recursiveResize=0;outlineConnect=0;portConstraint=eastwest;newEdgeStyle={&quot;edgeStyle&quot;:&quot;elbowEdgeStyle&quot;,&quot;elbow&quot;:&quot;vertical&quot;,&quot;curved&quot;:0,&quot;rounded&quot;:0};" parent="1" vertex="1">
          <mxGeometry x="280" y="1110" width="100" height="610" as="geometry" />
        </mxCell>
        <mxCell id="PMBpUnbIwR8fAhCMbHkn-42" value="" style="html=1;points=[];perimeter=orthogonalPerimeter;outlineConnect=0;targetShapes=umlLifeline;portConstraint=eastwest;newEdgeStyle={&quot;edgeStyle&quot;:&quot;elbowEdgeStyle&quot;,&quot;elbow&quot;:&quot;vertical&quot;,&quot;curved&quot;:0,&quot;rounded&quot;:0};" parent="PMBpUnbIwR8fAhCMbHkn-41" vertex="1">
          <mxGeometry x="45" y="130" width="10" height="140" as="geometry" />
        </mxCell>
        <mxCell id="PMBpUnbIwR8fAhCMbHkn-43" value="View Request" style="html=1;verticalAlign=bottom;endArrow=block;edgeStyle=elbowEdgeStyle;elbow=horizontal;curved=0;rounded=0;" parent="1" source="PMBpUnbIwR8fAhCMbHkn-38" target="PMBpUnbIwR8fAhCMbHkn-49" edge="1">
          <mxGeometry relative="1" as="geometry">
            <mxPoint x="-140" y="1190" as="sourcePoint" />
            <Array as="points">
              <mxPoint x="-90" y="1190" />
            </Array>
            <mxPoint x="-70" y="1190" as="targetPoint" />
          </mxGeometry>
        </mxCell>
        <mxCell id="PMBpUnbIwR8fAhCMbHkn-44" value="Model" style="shape=umlLifeline;perimeter=lifelinePerimeter;whiteSpace=wrap;html=1;container=0;dropTarget=0;collapsible=0;recursiveResize=0;outlineConnect=0;portConstraint=eastwest;newEdgeStyle={&quot;edgeStyle&quot;:&quot;elbowEdgeStyle&quot;,&quot;elbow&quot;:&quot;vertical&quot;,&quot;curved&quot;:0,&quot;rounded&quot;:0};" parent="1" vertex="1">
          <mxGeometry x="160" y="1110" width="100" height="610" as="geometry" />
        </mxCell>
        <mxCell id="PMBpUnbIwR8fAhCMbHkn-45" value="" style="html=1;points=[];perimeter=orthogonalPerimeter;outlineConnect=0;targetShapes=umlLifeline;portConstraint=eastwest;newEdgeStyle={&quot;edgeStyle&quot;:&quot;elbowEdgeStyle&quot;,&quot;elbow&quot;:&quot;vertical&quot;,&quot;curved&quot;:0,&quot;rounded&quot;:0};" parent="PMBpUnbIwR8fAhCMbHkn-44" vertex="1">
          <mxGeometry x="45" y="120" width="10" height="160" as="geometry" />
        </mxCell>
        <mxCell id="PMBpUnbIwR8fAhCMbHkn-83" value="" style="html=1;points=[];perimeter=orthogonalPerimeter;outlineConnect=0;targetShapes=umlLifeline;portConstraint=eastwest;newEdgeStyle={&quot;edgeStyle&quot;:&quot;elbowEdgeStyle&quot;,&quot;elbow&quot;:&quot;vertical&quot;,&quot;curved&quot;:0,&quot;rounded&quot;:0};" parent="PMBpUnbIwR8fAhCMbHkn-44" vertex="1">
          <mxGeometry x="45" y="380" width="10" height="160" as="geometry" />
        </mxCell>
        <mxCell id="PMBpUnbIwR8fAhCMbHkn-46" value="Controller" style="shape=umlLifeline;perimeter=lifelinePerimeter;whiteSpace=wrap;html=1;container=0;dropTarget=0;collapsible=0;recursiveResize=0;outlineConnect=0;portConstraint=eastwest;newEdgeStyle={&quot;edgeStyle&quot;:&quot;elbowEdgeStyle&quot;,&quot;elbow&quot;:&quot;vertical&quot;,&quot;curved&quot;:0,&quot;rounded&quot;:0};" parent="1" vertex="1">
          <mxGeometry x="40" y="1110" width="100" height="610" as="geometry" />
        </mxCell>
        <mxCell id="PMBpUnbIwR8fAhCMbHkn-47" value="" style="html=1;points=[];perimeter=orthogonalPerimeter;outlineConnect=0;targetShapes=umlLifeline;portConstraint=eastwest;newEdgeStyle={&quot;edgeStyle&quot;:&quot;elbowEdgeStyle&quot;,&quot;elbow&quot;:&quot;vertical&quot;,&quot;curved&quot;:0,&quot;rounded&quot;:0};" parent="PMBpUnbIwR8fAhCMbHkn-46" vertex="1">
          <mxGeometry x="45" y="100" width="10" height="190" as="geometry" />
        </mxCell>
        <mxCell id="PMBpUnbIwR8fAhCMbHkn-82" value="" style="html=1;points=[];perimeter=orthogonalPerimeter;outlineConnect=0;targetShapes=umlLifeline;portConstraint=eastwest;newEdgeStyle={&quot;edgeStyle&quot;:&quot;elbowEdgeStyle&quot;,&quot;elbow&quot;:&quot;vertical&quot;,&quot;curved&quot;:0,&quot;rounded&quot;:0};" parent="PMBpUnbIwR8fAhCMbHkn-46" vertex="1">
          <mxGeometry x="45" y="360" width="10" height="190" as="geometry" />
        </mxCell>
        <mxCell id="PMBpUnbIwR8fAhCMbHkn-48" value="View" style="shape=umlLifeline;perimeter=lifelinePerimeter;whiteSpace=wrap;html=1;container=0;dropTarget=0;collapsible=0;recursiveResize=0;outlineConnect=0;portConstraint=eastwest;newEdgeStyle={&quot;edgeStyle&quot;:&quot;elbowEdgeStyle&quot;,&quot;elbow&quot;:&quot;vertical&quot;,&quot;curved&quot;:0,&quot;rounded&quot;:0};" parent="1" vertex="1">
          <mxGeometry x="-90" y="1110" width="100" height="610" as="geometry" />
        </mxCell>
        <mxCell id="PMBpUnbIwR8fAhCMbHkn-49" value="" style="html=1;points=[];perimeter=orthogonalPerimeter;outlineConnect=0;targetShapes=umlLifeline;portConstraint=eastwest;newEdgeStyle={&quot;edgeStyle&quot;:&quot;elbowEdgeStyle&quot;,&quot;elbow&quot;:&quot;vertical&quot;,&quot;curved&quot;:0,&quot;rounded&quot;:0};" parent="PMBpUnbIwR8fAhCMbHkn-48" vertex="1">
          <mxGeometry x="45" y="80" width="10" height="220" as="geometry" />
        </mxCell>
        <mxCell id="PMBpUnbIwR8fAhCMbHkn-81" value="" style="html=1;points=[];perimeter=orthogonalPerimeter;outlineConnect=0;targetShapes=umlLifeline;portConstraint=eastwest;newEdgeStyle={&quot;edgeStyle&quot;:&quot;elbowEdgeStyle&quot;,&quot;elbow&quot;:&quot;vertical&quot;,&quot;curved&quot;:0,&quot;rounded&quot;:0};" parent="PMBpUnbIwR8fAhCMbHkn-48" vertex="1">
          <mxGeometry x="45" y="350" width="10" height="220" as="geometry" />
        </mxCell>
        <mxCell id="PMBpUnbIwR8fAhCMbHkn-50" value="Model Request Sent to&lt;div&gt;Controller&lt;/div&gt;" style="html=1;verticalAlign=bottom;endArrow=block;edgeStyle=elbowEdgeStyle;elbow=vertical;curved=0;rounded=0;" parent="1" source="PMBpUnbIwR8fAhCMbHkn-49" target="PMBpUnbIwR8fAhCMbHkn-47" edge="1">
          <mxGeometry relative="1" as="geometry">
            <mxPoint x="-20" y="1210" as="sourcePoint" />
            <Array as="points">
              <mxPoint x="45" y="1210" />
            </Array>
            <mxPoint x="70" y="1210" as="targetPoint" />
          </mxGeometry>
        </mxCell>
        <mxCell id="PMBpUnbIwR8fAhCMbHkn-51" value="Model Request" style="html=1;verticalAlign=bottom;endArrow=block;edgeStyle=elbowEdgeStyle;elbow=vertical;curved=0;rounded=0;" parent="1" source="PMBpUnbIwR8fAhCMbHkn-47" target="PMBpUnbIwR8fAhCMbHkn-45" edge="1">
          <mxGeometry relative="1" as="geometry">
            <mxPoint x="100" y="1230" as="sourcePoint" />
            <Array as="points">
              <mxPoint x="180" y="1230" />
            </Array>
            <mxPoint x="140" y="1240" as="targetPoint" />
          </mxGeometry>
        </mxCell>
        <mxCell id="PMBpUnbIwR8fAhCMbHkn-52" value="Event Service" style="shape=umlLifeline;perimeter=lifelinePerimeter;whiteSpace=wrap;html=1;container=0;dropTarget=0;collapsible=0;recursiveResize=0;outlineConnect=0;portConstraint=eastwest;newEdgeStyle={&quot;edgeStyle&quot;:&quot;elbowEdgeStyle&quot;,&quot;elbow&quot;:&quot;vertical&quot;,&quot;curved&quot;:0,&quot;rounded&quot;:0};" parent="1" vertex="1">
          <mxGeometry x="430" y="1110" width="100" height="610" as="geometry" />
        </mxCell>
        <mxCell id="PMBpUnbIwR8fAhCMbHkn-53" value="" style="html=1;points=[];perimeter=orthogonalPerimeter;outlineConnect=0;targetShapes=umlLifeline;portConstraint=eastwest;newEdgeStyle={&quot;edgeStyle&quot;:&quot;elbowEdgeStyle&quot;,&quot;elbow&quot;:&quot;vertical&quot;,&quot;curved&quot;:0,&quot;rounded&quot;:0};" parent="PMBpUnbIwR8fAhCMbHkn-52" vertex="1">
          <mxGeometry x="45" y="140" width="10" height="160" as="geometry" />
        </mxCell>
        <mxCell id="PMBpUnbIwR8fAhCMbHkn-54" value="&amp;nbsp;Requesting&amp;nbsp;&lt;div&gt;Information&lt;/div&gt;" style="html=1;verticalAlign=bottom;endArrow=block;edgeStyle=elbowEdgeStyle;elbow=vertical;curved=0;rounded=0;" parent="1" source="PMBpUnbIwR8fAhCMbHkn-45" target="PMBpUnbIwR8fAhCMbHkn-42" edge="1">
          <mxGeometry relative="1" as="geometry">
            <mxPoint x="215" y="1240" as="sourcePoint" />
            <Array as="points">
              <mxPoint x="280" y="1240" />
              <mxPoint x="305" y="1230" />
            </Array>
            <mxPoint x="325" y="1240" as="targetPoint" />
          </mxGeometry>
        </mxCell>
        <mxCell id="PMBpUnbIwR8fAhCMbHkn-55" value="Reqest Events" style="html=1;verticalAlign=bottom;endArrow=block;edgeStyle=elbowEdgeStyle;elbow=vertical;curved=0;rounded=0;" parent="1" target="PMBpUnbIwR8fAhCMbHkn-53" edge="1">
          <mxGeometry x="0.0049" relative="1" as="geometry">
            <mxPoint x="335" y="1250" as="sourcePoint" />
            <Array as="points">
              <mxPoint x="405" y="1250" />
              <mxPoint x="430" y="1240" />
            </Array>
            <mxPoint x="480" y="1240" as="targetPoint" />
            <mxPoint as="offset" />
          </mxGeometry>
        </mxCell>
        <mxCell id="PMBpUnbIwR8fAhCMbHkn-56" value="Return Events" style="html=1;verticalAlign=bottom;endArrow=block;edgeStyle=elbowEdgeStyle;elbow=vertical;curved=0;rounded=0;" parent="1" source="PMBpUnbIwR8fAhCMbHkn-53" target="PMBpUnbIwR8fAhCMbHkn-42" edge="1">
          <mxGeometry relative="1" as="geometry">
            <mxPoint x="460" y="1350" as="sourcePoint" />
            <Array as="points">
              <mxPoint x="400" y="1370" />
            </Array>
            <mxPoint x="340" y="1350" as="targetPoint" />
          </mxGeometry>
        </mxCell>
        <mxCell id="PMBpUnbIwR8fAhCMbHkn-57" value="Request Return" style="html=1;verticalAlign=bottom;endArrow=block;edgeStyle=elbowEdgeStyle;elbow=vertical;curved=0;rounded=0;" parent="1" source="PMBpUnbIwR8fAhCMbHkn-42" target="PMBpUnbIwR8fAhCMbHkn-45" edge="1">
          <mxGeometry relative="1" as="geometry">
            <mxPoint x="300" y="1370" as="sourcePoint" />
            <Array as="points">
              <mxPoint x="240" y="1380" />
            </Array>
            <mxPoint x="170" y="1370" as="targetPoint" />
          </mxGeometry>
        </mxCell>
        <mxCell id="PMBpUnbIwR8fAhCMbHkn-58" value="Request Return" style="html=1;verticalAlign=bottom;endArrow=block;edgeStyle=elbowEdgeStyle;elbow=vertical;curved=0;rounded=0;" parent="1" source="PMBpUnbIwR8fAhCMbHkn-45" target="PMBpUnbIwR8fAhCMbHkn-47" edge="1">
          <mxGeometry relative="1" as="geometry">
            <mxPoint x="180" y="1390" as="sourcePoint" />
            <Array as="points">
              <mxPoint x="115" y="1390" />
            </Array>
            <mxPoint x="90" y="1390" as="targetPoint" />
          </mxGeometry>
        </mxCell>
        <mxCell id="PMBpUnbIwR8fAhCMbHkn-59" value="Request Return" style="html=1;verticalAlign=bottom;endArrow=block;edgeStyle=elbowEdgeStyle;elbow=vertical;curved=0;rounded=0;" parent="1" source="PMBpUnbIwR8fAhCMbHkn-47" target="PMBpUnbIwR8fAhCMbHkn-49" edge="1">
          <mxGeometry relative="1" as="geometry">
            <mxPoint x="80" y="1400" as="sourcePoint" />
            <Array as="points">
              <mxPoint x="-5" y="1400" />
            </Array>
            <mxPoint x="-30" y="1400" as="targetPoint" />
          </mxGeometry>
        </mxCell>
        <mxCell id="PMBpUnbIwR8fAhCMbHkn-60" value="View is Returned" style="html=1;verticalAlign=bottom;endArrow=block;edgeStyle=elbowEdgeStyle;elbow=vertical;curved=0;rounded=0;" parent="1" source="PMBpUnbIwR8fAhCMbHkn-49" target="PMBpUnbIwR8fAhCMbHkn-38" edge="1">
          <mxGeometry relative="1" as="geometry">
            <mxPoint x="-70" y="1410" as="sourcePoint" />
            <Array as="points">
              <mxPoint x="-130" y="1410" />
            </Array>
            <mxPoint x="-200" y="1410" as="targetPoint" />
          </mxGeometry>
        </mxCell>
        <mxCell id="PMBpUnbIwR8fAhCMbHkn-61" value="&lt;span style=&quot;font-size: 24px;&quot;&gt;&lt;b&gt;Search Events by Name&lt;/b&gt;&lt;/span&gt;" style="text;html=1;align=center;verticalAlign=middle;resizable=0;points=[];autosize=1;strokeColor=none;fillColor=none;" parent="1" vertex="1">
          <mxGeometry x="-205" y="1050" width="300" height="40" as="geometry" />
        </mxCell>
        <mxCell id="PMBpUnbIwR8fAhCMbHkn-65" value="Database" style="shape=umlLifeline;perimeter=lifelinePerimeter;whiteSpace=wrap;html=1;container=0;dropTarget=0;collapsible=0;recursiveResize=0;outlineConnect=0;portConstraint=eastwest;newEdgeStyle={&quot;edgeStyle&quot;:&quot;elbowEdgeStyle&quot;,&quot;elbow&quot;:&quot;vertical&quot;,&quot;curved&quot;:0,&quot;rounded&quot;:0};" parent="1" vertex="1">
          <mxGeometry x="570" y="1110" width="100" height="610" as="geometry" />
        </mxCell>
        <mxCell id="PMBpUnbIwR8fAhCMbHkn-66" value="" style="html=1;points=[];perimeter=orthogonalPerimeter;outlineConnect=0;targetShapes=umlLifeline;portConstraint=eastwest;newEdgeStyle={&quot;edgeStyle&quot;:&quot;elbowEdgeStyle&quot;,&quot;elbow&quot;:&quot;vertical&quot;,&quot;curved&quot;:0,&quot;rounded&quot;:0};" parent="PMBpUnbIwR8fAhCMbHkn-65" vertex="1">
          <mxGeometry x="45" y="150" width="10" height="30" as="geometry" />
        </mxCell>
        <mxCell id="PMBpUnbIwR8fAhCMbHkn-67" value="Request for events&amp;nbsp;&lt;div&gt;from DB&lt;/div&gt;" style="html=1;verticalAlign=bottom;endArrow=block;edgeStyle=elbowEdgeStyle;elbow=vertical;curved=0;rounded=0;" parent="1" source="PMBpUnbIwR8fAhCMbHkn-53" target="PMBpUnbIwR8fAhCMbHkn-66" edge="1">
          <mxGeometry x="0.0049" relative="1" as="geometry">
            <mxPoint x="500" y="1270" as="sourcePoint" />
            <Array as="points">
              <mxPoint x="570" y="1260" />
              <mxPoint x="595" y="1260" />
            </Array>
            <mxPoint x="620" y="1270" as="targetPoint" />
            <mxPoint as="offset" />
          </mxGeometry>
        </mxCell>
        <mxCell id="PMBpUnbIwR8fAhCMbHkn-69" value="Return collected Events" style="html=1;verticalAlign=bottom;endArrow=block;edgeStyle=elbowEdgeStyle;elbow=vertical;curved=0;rounded=0;" parent="1" source="PMBpUnbIwR8fAhCMbHkn-66" target="PMBpUnbIwR8fAhCMbHkn-53" edge="1">
          <mxGeometry relative="1" as="geometry">
            <mxPoint x="590" y="1330" as="sourcePoint" />
            <Array as="points">
              <mxPoint x="590" y="1290" />
            </Array>
            <mxPoint x="450" y="1330" as="targetPoint" />
          </mxGeometry>
        </mxCell>
        <mxCell id="PMBpUnbIwR8fAhCMbHkn-70" value="" style="html=1;verticalAlign=bottom;startArrow=oval;endArrow=block;startSize=8;edgeStyle=elbowEdgeStyle;elbow=vertical;curved=0;rounded=0;" parent="1" edge="1">
          <mxGeometry relative="1" as="geometry">
            <mxPoint x="-330" y="1449.58" as="sourcePoint" />
            <Array as="points">
              <mxPoint x="-290" y="1449.58" />
            </Array>
            <mxPoint x="-165" y="1449.58" as="targetPoint" />
          </mxGeometry>
        </mxCell>
        <mxCell id="PMBpUnbIwR8fAhCMbHkn-71" value="Users adds search Criteria" style="edgeLabel;html=1;align=center;verticalAlign=middle;resizable=0;points=[];" parent="PMBpUnbIwR8fAhCMbHkn-70" vertex="1" connectable="0">
          <mxGeometry x="0.0331" y="1" relative="1" as="geometry">
            <mxPoint x="-4" y="-9" as="offset" />
          </mxGeometry>
        </mxCell>
        <mxCell id="PMBpUnbIwR8fAhCMbHkn-80" value="New View Request" style="html=1;verticalAlign=bottom;endArrow=block;edgeStyle=elbowEdgeStyle;elbow=horizontal;curved=0;rounded=0;" parent="1" source="PMBpUnbIwR8fAhCMbHkn-38" target="PMBpUnbIwR8fAhCMbHkn-81" edge="1">
          <mxGeometry relative="1" as="geometry">
            <mxPoint x="-160" y="1460" as="sourcePoint" />
            <Array as="points">
              <mxPoint x="-95" y="1460" />
            </Array>
            <mxPoint x="-50" y="1460" as="targetPoint" />
          </mxGeometry>
        </mxCell>
        <mxCell id="PMBpUnbIwR8fAhCMbHkn-84" value="Model Request Sent to&lt;div&gt;Controller&lt;/div&gt;" style="html=1;verticalAlign=bottom;endArrow=block;edgeStyle=elbowEdgeStyle;elbow=vertical;curved=0;rounded=0;" parent="1" source="PMBpUnbIwR8fAhCMbHkn-81" target="PMBpUnbIwR8fAhCMbHkn-82" edge="1">
          <mxGeometry relative="1" as="geometry">
            <mxPoint x="-25" y="1470" as="sourcePoint" />
            <Array as="points">
              <mxPoint x="55" y="1470" />
            </Array>
            <mxPoint x="95" y="1470" as="targetPoint" />
          </mxGeometry>
        </mxCell>
        <mxCell id="PMBpUnbIwR8fAhCMbHkn-86" value="Model Request" style="html=1;verticalAlign=bottom;endArrow=block;edgeStyle=elbowEdgeStyle;elbow=vertical;curved=0;rounded=0;" parent="1" source="PMBpUnbIwR8fAhCMbHkn-82" target="PMBpUnbIwR8fAhCMbHkn-83" edge="1">
          <mxGeometry relative="1" as="geometry">
            <mxPoint x="105" y="1490" as="sourcePoint" />
            <Array as="points">
              <mxPoint x="190" y="1490" />
            </Array>
            <mxPoint x="215" y="1490" as="targetPoint" />
          </mxGeometry>
        </mxCell>
        <mxCell id="PMBpUnbIwR8fAhCMbHkn-87" value="Returns Model with&amp;nbsp;&lt;div&gt;only events&amp;nbsp;&lt;/div&gt;&lt;div&gt;matching criteria&lt;/div&gt;" style="html=1;verticalAlign=bottom;endArrow=block;edgeStyle=elbowEdgeStyle;elbow=vertical;curved=0;rounded=0;" parent="1" source="PMBpUnbIwR8fAhCMbHkn-83" edge="1">
          <mxGeometry relative="1" as="geometry">
            <mxPoint x="210" y="1630" as="sourcePoint" />
            <Array as="points">
              <mxPoint x="100" y="1640" />
            </Array>
            <mxPoint x="95" y="1640" as="targetPoint" />
          </mxGeometry>
        </mxCell>
        <mxCell id="PMBpUnbIwR8fAhCMbHkn-88" value="Request Return" style="html=1;verticalAlign=bottom;endArrow=block;edgeStyle=elbowEdgeStyle;elbow=vertical;curved=0;rounded=0;" parent="1" source="PMBpUnbIwR8fAhCMbHkn-82" target="PMBpUnbIwR8fAhCMbHkn-81" edge="1">
          <mxGeometry relative="1" as="geometry">
            <mxPoint x="80" y="1660" as="sourcePoint" />
            <Array as="points">
              <mxPoint x="-10" y="1660" />
            </Array>
            <mxPoint x="-40" y="1660" as="targetPoint" />
          </mxGeometry>
        </mxCell>
        <mxCell id="PMBpUnbIwR8fAhCMbHkn-89" value="Filtered View&amp;nbsp;&lt;div&gt;Returned&lt;/div&gt;" style="html=1;verticalAlign=bottom;endArrow=block;edgeStyle=elbowEdgeStyle;elbow=vertical;curved=0;rounded=0;" parent="1" source="PMBpUnbIwR8fAhCMbHkn-81" target="PMBpUnbIwR8fAhCMbHkn-38" edge="1">
          <mxGeometry relative="1" as="geometry">
            <mxPoint x="-60" y="1680" as="sourcePoint" />
            <Array as="points">
              <mxPoint x="-145" y="1680" />
            </Array>
            <mxPoint x="-170" y="1680" as="targetPoint" />
          </mxGeometry>
        </mxCell>
        <mxCell id="PMBpUnbIwR8fAhCMbHkn-90" value="Image Service" style="shape=umlLifeline;perimeter=lifelinePerimeter;whiteSpace=wrap;html=1;container=0;dropTarget=0;collapsible=0;recursiveResize=0;outlineConnect=0;portConstraint=eastwest;newEdgeStyle={&quot;edgeStyle&quot;:&quot;elbowEdgeStyle&quot;,&quot;elbow&quot;:&quot;vertical&quot;,&quot;curved&quot;:0,&quot;rounded&quot;:0};" parent="1" vertex="1">
          <mxGeometry x="850" y="1110" width="100" height="610" as="geometry" />
        </mxCell>
        <mxCell id="PMBpUnbIwR8fAhCMbHkn-93" value="" style="html=1;points=[];perimeter=orthogonalPerimeter;outlineConnect=0;targetShapes=umlLifeline;portConstraint=eastwest;newEdgeStyle={&quot;edgeStyle&quot;:&quot;elbowEdgeStyle&quot;,&quot;elbow&quot;:&quot;vertical&quot;,&quot;curved&quot;:0,&quot;rounded&quot;:0};" parent="PMBpUnbIwR8fAhCMbHkn-90" vertex="1">
          <mxGeometry x="45" y="200" width="10" height="35" as="geometry" />
        </mxCell>
        <mxCell id="PMBpUnbIwR8fAhCMbHkn-92" value="Image Database" style="shape=umlLifeline;perimeter=lifelinePerimeter;whiteSpace=wrap;html=1;container=0;dropTarget=0;collapsible=0;recursiveResize=0;outlineConnect=0;portConstraint=eastwest;newEdgeStyle={&quot;edgeStyle&quot;:&quot;elbowEdgeStyle&quot;,&quot;elbow&quot;:&quot;vertical&quot;,&quot;curved&quot;:0,&quot;rounded&quot;:0};" parent="1" vertex="1">
          <mxGeometry x="990" y="1110" width="100" height="610" as="geometry" />
        </mxCell>
        <mxCell id="DuXq8aAM7IM7Aar4G6KB-3" value="" style="html=1;points=[];perimeter=orthogonalPerimeter;outlineConnect=0;targetShapes=umlLifeline;portConstraint=eastwest;newEdgeStyle={&quot;edgeStyle&quot;:&quot;elbowEdgeStyle&quot;,&quot;elbow&quot;:&quot;vertical&quot;,&quot;curved&quot;:0,&quot;rounded&quot;:0};" parent="PMBpUnbIwR8fAhCMbHkn-92" vertex="1">
          <mxGeometry x="45" y="210" width="10" height="20" as="geometry" />
        </mxCell>
        <mxCell id="PMBpUnbIwR8fAhCMbHkn-94" value="PubSub Request Event Images" style="html=1;verticalAlign=bottom;endArrow=block;edgeStyle=elbowEdgeStyle;elbow=vertical;curved=0;rounded=0;" parent="1" source="PMBpUnbIwR8fAhCMbHkn-53" target="PMBpUnbIwR8fAhCMbHkn-91" edge="1">
          <mxGeometry x="0.2692" y="-20" relative="1" as="geometry">
            <mxPoint x="490" y="1310" as="sourcePoint" />
            <Array as="points">
              <mxPoint x="580" y="1300" />
              <mxPoint x="600" y="1310" />
            </Array>
            <mxPoint x="620" y="1310" as="targetPoint" />
            <mxPoint as="offset" />
          </mxGeometry>
        </mxCell>
        <mxCell id="PMBpUnbIwR8fAhCMbHkn-95" value="Request Images" style="html=1;verticalAlign=bottom;endArrow=block;edgeStyle=elbowEdgeStyle;elbow=vertical;curved=0;rounded=0;" parent="1" source="PMBpUnbIwR8fAhCMbHkn-91" target="PMBpUnbIwR8fAhCMbHkn-93" edge="1">
          <mxGeometry relative="1" as="geometry">
            <mxPoint x="770" y="1320" as="sourcePoint" />
            <Array as="points">
              <mxPoint x="845" y="1310" />
            </Array>
            <mxPoint x="865" y="1320" as="targetPoint" />
            <mxPoint as="offset" />
          </mxGeometry>
        </mxCell>
        <mxCell id="PMBpUnbIwR8fAhCMbHkn-96" value="Return collected Images" style="html=1;verticalAlign=bottom;endArrow=block;edgeStyle=elbowEdgeStyle;elbow=vertical;curved=0;rounded=0;" parent="1" source="PMBpUnbIwR8fAhCMbHkn-93" target="PMBpUnbIwR8fAhCMbHkn-91" edge="1">
          <mxGeometry relative="1" as="geometry">
            <mxPoint x="850" y="1340" as="sourcePoint" />
            <Array as="points">
              <mxPoint x="825" y="1340" />
            </Array>
            <mxPoint x="720" y="1340" as="targetPoint" />
          </mxGeometry>
        </mxCell>
        <mxCell id="PMBpUnbIwR8fAhCMbHkn-97" value="Return collected Event Images" style="html=1;verticalAlign=bottom;endArrow=block;edgeStyle=elbowEdgeStyle;elbow=vertical;curved=0;rounded=0;" parent="1" source="PMBpUnbIwR8fAhCMbHkn-91" target="PMBpUnbIwR8fAhCMbHkn-53" edge="1">
          <mxGeometry x="-0.1923" relative="1" as="geometry">
            <mxPoint x="640" y="1350" as="sourcePoint" />
            <Array as="points">
              <mxPoint x="560" y="1350" />
            </Array>
            <mxPoint x="510" y="1350" as="targetPoint" />
            <mxPoint as="offset" />
          </mxGeometry>
        </mxCell>
        <mxCell id="PMBpUnbIwR8fAhCMbHkn-134" value="Application" style="shape=umlLifeline;perimeter=lifelinePerimeter;whiteSpace=wrap;html=1;container=0;dropTarget=0;collapsible=0;recursiveResize=0;outlineConnect=0;portConstraint=eastwest;newEdgeStyle={&quot;edgeStyle&quot;:&quot;elbowEdgeStyle&quot;,&quot;elbow&quot;:&quot;vertical&quot;,&quot;curved&quot;:0,&quot;rounded&quot;:0};" parent="1" vertex="1">
          <mxGeometry x="-260" y="1840" width="100" height="610" as="geometry" />
        </mxCell>
        <mxCell id="PMBpUnbIwR8fAhCMbHkn-135" value="" style="html=1;points=[];perimeter=orthogonalPerimeter;outlineConnect=0;targetShapes=umlLifeline;portConstraint=eastwest;newEdgeStyle={&quot;edgeStyle&quot;:&quot;elbowEdgeStyle&quot;,&quot;elbow&quot;:&quot;vertical&quot;,&quot;curved&quot;:0,&quot;rounded&quot;:0};" parent="PMBpUnbIwR8fAhCMbHkn-134" vertex="1">
          <mxGeometry x="45" y="70" width="10" height="510" as="geometry" />
        </mxCell>
        <mxCell id="PMBpUnbIwR8fAhCMbHkn-136" value="" style="html=1;verticalAlign=bottom;startArrow=oval;endArrow=block;startSize=8;edgeStyle=elbowEdgeStyle;elbow=vertical;curved=0;rounded=0;" parent="PMBpUnbIwR8fAhCMbHkn-134" target="PMBpUnbIwR8fAhCMbHkn-135" edge="1">
          <mxGeometry relative="1" as="geometry">
            <mxPoint x="-190" y="70" as="sourcePoint" />
            <Array as="points">
              <mxPoint x="-80" y="70" />
            </Array>
          </mxGeometry>
        </mxCell>
        <mxCell id="PMBpUnbIwR8fAhCMbHkn-137" value="User selects group search on main page" style="edgeLabel;html=1;align=center;verticalAlign=middle;resizable=0;points=[];" parent="PMBpUnbIwR8fAhCMbHkn-136" vertex="1" connectable="0">
          <mxGeometry x="0.0331" y="1" relative="1" as="geometry">
            <mxPoint x="-4" y="-9" as="offset" />
          </mxGeometry>
        </mxCell>
        <mxCell id="PMBpUnbIwR8fAhCMbHkn-138" value="API Gateway" style="shape=umlLifeline;perimeter=lifelinePerimeter;whiteSpace=wrap;html=1;container=0;dropTarget=0;collapsible=0;recursiveResize=0;outlineConnect=0;portConstraint=eastwest;newEdgeStyle={&quot;edgeStyle&quot;:&quot;elbowEdgeStyle&quot;,&quot;elbow&quot;:&quot;vertical&quot;,&quot;curved&quot;:0,&quot;rounded&quot;:0};" parent="1" vertex="1">
          <mxGeometry x="230" y="1840" width="100" height="610" as="geometry" />
        </mxCell>
        <mxCell id="PMBpUnbIwR8fAhCMbHkn-139" value="" style="html=1;points=[];perimeter=orthogonalPerimeter;outlineConnect=0;targetShapes=umlLifeline;portConstraint=eastwest;newEdgeStyle={&quot;edgeStyle&quot;:&quot;elbowEdgeStyle&quot;,&quot;elbow&quot;:&quot;vertical&quot;,&quot;curved&quot;:0,&quot;rounded&quot;:0};" parent="PMBpUnbIwR8fAhCMbHkn-138" vertex="1">
          <mxGeometry x="45" y="130" width="10" height="140" as="geometry" />
        </mxCell>
        <mxCell id="PMBpUnbIwR8fAhCMbHkn-234" value="" style="html=1;points=[];perimeter=orthogonalPerimeter;outlineConnect=0;targetShapes=umlLifeline;portConstraint=eastwest;newEdgeStyle={&quot;edgeStyle&quot;:&quot;elbowEdgeStyle&quot;,&quot;elbow&quot;:&quot;vertical&quot;,&quot;curved&quot;:0,&quot;rounded&quot;:0};" parent="PMBpUnbIwR8fAhCMbHkn-138" vertex="1">
          <mxGeometry x="45" y="390" width="10" height="140" as="geometry" />
        </mxCell>
        <mxCell id="PMBpUnbIwR8fAhCMbHkn-140" value="View Request" style="html=1;verticalAlign=bottom;endArrow=block;edgeStyle=elbowEdgeStyle;elbow=horizontal;curved=0;rounded=0;" parent="1" source="PMBpUnbIwR8fAhCMbHkn-135" target="PMBpUnbIwR8fAhCMbHkn-148" edge="1">
          <mxGeometry relative="1" as="geometry">
            <mxPoint x="-190" y="1920" as="sourcePoint" />
            <Array as="points">
              <mxPoint x="-140" y="1920" />
            </Array>
            <mxPoint x="-120" y="1920" as="targetPoint" />
          </mxGeometry>
        </mxCell>
        <mxCell id="PMBpUnbIwR8fAhCMbHkn-141" value="Model" style="shape=umlLifeline;perimeter=lifelinePerimeter;whiteSpace=wrap;html=1;container=0;dropTarget=0;collapsible=0;recursiveResize=0;outlineConnect=0;portConstraint=eastwest;newEdgeStyle={&quot;edgeStyle&quot;:&quot;elbowEdgeStyle&quot;,&quot;elbow&quot;:&quot;vertical&quot;,&quot;curved&quot;:0,&quot;rounded&quot;:0};" parent="1" vertex="1">
          <mxGeometry x="110" y="1840" width="100" height="610" as="geometry" />
        </mxCell>
        <mxCell id="PMBpUnbIwR8fAhCMbHkn-142" value="" style="html=1;points=[];perimeter=orthogonalPerimeter;outlineConnect=0;targetShapes=umlLifeline;portConstraint=eastwest;newEdgeStyle={&quot;edgeStyle&quot;:&quot;elbowEdgeStyle&quot;,&quot;elbow&quot;:&quot;vertical&quot;,&quot;curved&quot;:0,&quot;rounded&quot;:0};" parent="PMBpUnbIwR8fAhCMbHkn-141" vertex="1">
          <mxGeometry x="45" y="120" width="10" height="160" as="geometry" />
        </mxCell>
        <mxCell id="PMBpUnbIwR8fAhCMbHkn-143" value="" style="html=1;points=[];perimeter=orthogonalPerimeter;outlineConnect=0;targetShapes=umlLifeline;portConstraint=eastwest;newEdgeStyle={&quot;edgeStyle&quot;:&quot;elbowEdgeStyle&quot;,&quot;elbow&quot;:&quot;vertical&quot;,&quot;curved&quot;:0,&quot;rounded&quot;:0};" parent="PMBpUnbIwR8fAhCMbHkn-141" vertex="1">
          <mxGeometry x="45" y="380" width="10" height="160" as="geometry" />
        </mxCell>
        <mxCell id="PMBpUnbIwR8fAhCMbHkn-144" value="Controller" style="shape=umlLifeline;perimeter=lifelinePerimeter;whiteSpace=wrap;html=1;container=0;dropTarget=0;collapsible=0;recursiveResize=0;outlineConnect=0;portConstraint=eastwest;newEdgeStyle={&quot;edgeStyle&quot;:&quot;elbowEdgeStyle&quot;,&quot;elbow&quot;:&quot;vertical&quot;,&quot;curved&quot;:0,&quot;rounded&quot;:0};" parent="1" vertex="1">
          <mxGeometry x="-10" y="1840" width="100" height="610" as="geometry" />
        </mxCell>
        <mxCell id="PMBpUnbIwR8fAhCMbHkn-145" value="" style="html=1;points=[];perimeter=orthogonalPerimeter;outlineConnect=0;targetShapes=umlLifeline;portConstraint=eastwest;newEdgeStyle={&quot;edgeStyle&quot;:&quot;elbowEdgeStyle&quot;,&quot;elbow&quot;:&quot;vertical&quot;,&quot;curved&quot;:0,&quot;rounded&quot;:0};" parent="PMBpUnbIwR8fAhCMbHkn-144" vertex="1">
          <mxGeometry x="45" y="100" width="10" height="190" as="geometry" />
        </mxCell>
        <mxCell id="PMBpUnbIwR8fAhCMbHkn-146" value="" style="html=1;points=[];perimeter=orthogonalPerimeter;outlineConnect=0;targetShapes=umlLifeline;portConstraint=eastwest;newEdgeStyle={&quot;edgeStyle&quot;:&quot;elbowEdgeStyle&quot;,&quot;elbow&quot;:&quot;vertical&quot;,&quot;curved&quot;:0,&quot;rounded&quot;:0};" parent="PMBpUnbIwR8fAhCMbHkn-144" vertex="1">
          <mxGeometry x="45" y="360" width="10" height="190" as="geometry" />
        </mxCell>
        <mxCell id="PMBpUnbIwR8fAhCMbHkn-147" value="View" style="shape=umlLifeline;perimeter=lifelinePerimeter;whiteSpace=wrap;html=1;container=0;dropTarget=0;collapsible=0;recursiveResize=0;outlineConnect=0;portConstraint=eastwest;newEdgeStyle={&quot;edgeStyle&quot;:&quot;elbowEdgeStyle&quot;,&quot;elbow&quot;:&quot;vertical&quot;,&quot;curved&quot;:0,&quot;rounded&quot;:0};" parent="1" vertex="1">
          <mxGeometry x="-140" y="1840" width="100" height="610" as="geometry" />
        </mxCell>
        <mxCell id="PMBpUnbIwR8fAhCMbHkn-148" value="" style="html=1;points=[];perimeter=orthogonalPerimeter;outlineConnect=0;targetShapes=umlLifeline;portConstraint=eastwest;newEdgeStyle={&quot;edgeStyle&quot;:&quot;elbowEdgeStyle&quot;,&quot;elbow&quot;:&quot;vertical&quot;,&quot;curved&quot;:0,&quot;rounded&quot;:0};" parent="PMBpUnbIwR8fAhCMbHkn-147" vertex="1">
          <mxGeometry x="45" y="80" width="10" height="220" as="geometry" />
        </mxCell>
        <mxCell id="PMBpUnbIwR8fAhCMbHkn-149" value="" style="html=1;points=[];perimeter=orthogonalPerimeter;outlineConnect=0;targetShapes=umlLifeline;portConstraint=eastwest;newEdgeStyle={&quot;edgeStyle&quot;:&quot;elbowEdgeStyle&quot;,&quot;elbow&quot;:&quot;vertical&quot;,&quot;curved&quot;:0,&quot;rounded&quot;:0};" parent="PMBpUnbIwR8fAhCMbHkn-147" vertex="1">
          <mxGeometry x="45" y="350" width="10" height="220" as="geometry" />
        </mxCell>
        <mxCell id="PMBpUnbIwR8fAhCMbHkn-150" value="Model Request Sent to&lt;div&gt;Controller&lt;/div&gt;" style="html=1;verticalAlign=bottom;endArrow=block;edgeStyle=elbowEdgeStyle;elbow=vertical;curved=0;rounded=0;" parent="1" source="PMBpUnbIwR8fAhCMbHkn-148" target="PMBpUnbIwR8fAhCMbHkn-145" edge="1">
          <mxGeometry relative="1" as="geometry">
            <mxPoint x="-70" y="1940" as="sourcePoint" />
            <Array as="points">
              <mxPoint x="-5" y="1940" />
            </Array>
            <mxPoint x="20" y="1940" as="targetPoint" />
          </mxGeometry>
        </mxCell>
        <mxCell id="PMBpUnbIwR8fAhCMbHkn-151" value="Model Request" style="html=1;verticalAlign=bottom;endArrow=block;edgeStyle=elbowEdgeStyle;elbow=vertical;curved=0;rounded=0;" parent="1" source="PMBpUnbIwR8fAhCMbHkn-145" target="PMBpUnbIwR8fAhCMbHkn-142" edge="1">
          <mxGeometry relative="1" as="geometry">
            <mxPoint x="50" y="1960" as="sourcePoint" />
            <Array as="points">
              <mxPoint x="130" y="1960" />
            </Array>
            <mxPoint x="90" y="1970" as="targetPoint" />
          </mxGeometry>
        </mxCell>
        <mxCell id="PMBpUnbIwR8fAhCMbHkn-152" value="Group Service" style="shape=umlLifeline;perimeter=lifelinePerimeter;whiteSpace=wrap;html=1;container=0;dropTarget=0;collapsible=0;recursiveResize=0;outlineConnect=0;portConstraint=eastwest;newEdgeStyle={&quot;edgeStyle&quot;:&quot;elbowEdgeStyle&quot;,&quot;elbow&quot;:&quot;vertical&quot;,&quot;curved&quot;:0,&quot;rounded&quot;:0};" parent="1" vertex="1">
          <mxGeometry x="380" y="1840" width="100" height="610" as="geometry" />
        </mxCell>
        <mxCell id="PMBpUnbIwR8fAhCMbHkn-153" value="" style="html=1;points=[];perimeter=orthogonalPerimeter;outlineConnect=0;targetShapes=umlLifeline;portConstraint=eastwest;newEdgeStyle={&quot;edgeStyle&quot;:&quot;elbowEdgeStyle&quot;,&quot;elbow&quot;:&quot;vertical&quot;,&quot;curved&quot;:0,&quot;rounded&quot;:0};" parent="PMBpUnbIwR8fAhCMbHkn-152" vertex="1">
          <mxGeometry x="45" y="140" width="10" height="120" as="geometry" />
        </mxCell>
        <mxCell id="PMBpUnbIwR8fAhCMbHkn-154" value="&amp;nbsp;Requesting&amp;nbsp;&lt;div&gt;Information&lt;/div&gt;" style="html=1;verticalAlign=bottom;endArrow=block;edgeStyle=elbowEdgeStyle;elbow=vertical;curved=0;rounded=0;" parent="1" source="PMBpUnbIwR8fAhCMbHkn-142" target="PMBpUnbIwR8fAhCMbHkn-139" edge="1">
          <mxGeometry relative="1" as="geometry">
            <mxPoint x="165" y="1970" as="sourcePoint" />
            <Array as="points">
              <mxPoint x="230" y="1970" />
              <mxPoint x="255" y="1960" />
            </Array>
            <mxPoint x="275" y="1970" as="targetPoint" />
          </mxGeometry>
        </mxCell>
        <mxCell id="PMBpUnbIwR8fAhCMbHkn-155" value="Reqest Groups" style="html=1;verticalAlign=bottom;endArrow=block;edgeStyle=elbowEdgeStyle;elbow=vertical;curved=0;rounded=0;" parent="1" target="PMBpUnbIwR8fAhCMbHkn-153" edge="1">
          <mxGeometry x="0.0049" relative="1" as="geometry">
            <mxPoint x="285" y="1980" as="sourcePoint" />
            <Array as="points">
              <mxPoint x="355" y="1980" />
              <mxPoint x="380" y="1970" />
            </Array>
            <mxPoint x="430" y="1970" as="targetPoint" />
            <mxPoint as="offset" />
          </mxGeometry>
        </mxCell>
        <mxCell id="PMBpUnbIwR8fAhCMbHkn-156" value="Return Events" style="html=1;verticalAlign=bottom;endArrow=block;edgeStyle=elbowEdgeStyle;elbow=vertical;curved=0;rounded=0;" parent="1" source="PMBpUnbIwR8fAhCMbHkn-153" target="PMBpUnbIwR8fAhCMbHkn-139" edge="1">
          <mxGeometry relative="1" as="geometry">
            <mxPoint x="410" y="2080" as="sourcePoint" />
            <Array as="points">
              <mxPoint x="350" y="2100" />
            </Array>
            <mxPoint x="290" y="2080" as="targetPoint" />
          </mxGeometry>
        </mxCell>
        <mxCell id="PMBpUnbIwR8fAhCMbHkn-157" value="Request Return" style="html=1;verticalAlign=bottom;endArrow=block;edgeStyle=elbowEdgeStyle;elbow=vertical;curved=0;rounded=0;" parent="1" source="PMBpUnbIwR8fAhCMbHkn-139" target="PMBpUnbIwR8fAhCMbHkn-142" edge="1">
          <mxGeometry relative="1" as="geometry">
            <mxPoint x="250" y="2100" as="sourcePoint" />
            <Array as="points">
              <mxPoint x="190" y="2110" />
            </Array>
            <mxPoint x="120" y="2100" as="targetPoint" />
          </mxGeometry>
        </mxCell>
        <mxCell id="PMBpUnbIwR8fAhCMbHkn-158" value="Request Return" style="html=1;verticalAlign=bottom;endArrow=block;edgeStyle=elbowEdgeStyle;elbow=vertical;curved=0;rounded=0;" parent="1" source="PMBpUnbIwR8fAhCMbHkn-142" target="PMBpUnbIwR8fAhCMbHkn-145" edge="1">
          <mxGeometry relative="1" as="geometry">
            <mxPoint x="130" y="2120" as="sourcePoint" />
            <Array as="points">
              <mxPoint x="65" y="2120" />
            </Array>
            <mxPoint x="40" y="2120" as="targetPoint" />
          </mxGeometry>
        </mxCell>
        <mxCell id="PMBpUnbIwR8fAhCMbHkn-159" value="Request Return" style="html=1;verticalAlign=bottom;endArrow=block;edgeStyle=elbowEdgeStyle;elbow=vertical;curved=0;rounded=0;" parent="1" source="PMBpUnbIwR8fAhCMbHkn-145" target="PMBpUnbIwR8fAhCMbHkn-148" edge="1">
          <mxGeometry relative="1" as="geometry">
            <mxPoint x="30" y="2130" as="sourcePoint" />
            <Array as="points">
              <mxPoint x="-55" y="2130" />
            </Array>
            <mxPoint x="-80" y="2130" as="targetPoint" />
          </mxGeometry>
        </mxCell>
        <mxCell id="PMBpUnbIwR8fAhCMbHkn-160" value="View is Returned" style="html=1;verticalAlign=bottom;endArrow=block;edgeStyle=elbowEdgeStyle;elbow=vertical;curved=0;rounded=0;" parent="1" source="PMBpUnbIwR8fAhCMbHkn-148" target="PMBpUnbIwR8fAhCMbHkn-135" edge="1">
          <mxGeometry relative="1" as="geometry">
            <mxPoint x="-120" y="2140" as="sourcePoint" />
            <Array as="points">
              <mxPoint x="-180" y="2140" />
            </Array>
            <mxPoint x="-250" y="2140" as="targetPoint" />
          </mxGeometry>
        </mxCell>
        <mxCell id="PMBpUnbIwR8fAhCMbHkn-161" value="&lt;span style=&quot;font-size: 24px;&quot;&gt;&lt;b&gt;Navigating to a dedicated group page&lt;/b&gt;&lt;/span&gt;" style="text;html=1;align=center;verticalAlign=middle;resizable=0;points=[];autosize=1;strokeColor=none;fillColor=none;" parent="1" vertex="1">
          <mxGeometry x="-330" y="1780" width="450" height="40" as="geometry" />
        </mxCell>
        <mxCell id="PMBpUnbIwR8fAhCMbHkn-162" value="Database" style="shape=umlLifeline;perimeter=lifelinePerimeter;whiteSpace=wrap;html=1;container=0;dropTarget=0;collapsible=0;recursiveResize=0;outlineConnect=0;portConstraint=eastwest;newEdgeStyle={&quot;edgeStyle&quot;:&quot;elbowEdgeStyle&quot;,&quot;elbow&quot;:&quot;vertical&quot;,&quot;curved&quot;:0,&quot;rounded&quot;:0};" parent="1" vertex="1">
          <mxGeometry x="650" y="1840" width="100" height="610" as="geometry" />
        </mxCell>
        <mxCell id="PMBpUnbIwR8fAhCMbHkn-163" value="" style="html=1;points=[];perimeter=orthogonalPerimeter;outlineConnect=0;targetShapes=umlLifeline;portConstraint=eastwest;newEdgeStyle={&quot;edgeStyle&quot;:&quot;elbowEdgeStyle&quot;,&quot;elbow&quot;:&quot;vertical&quot;,&quot;curved&quot;:0,&quot;rounded&quot;:0};" parent="PMBpUnbIwR8fAhCMbHkn-162" vertex="1">
          <mxGeometry x="45" y="150" width="10" height="30" as="geometry" />
        </mxCell>
        <mxCell id="PMBpUnbIwR8fAhCMbHkn-164" value="Query for groups&amp;nbsp;&lt;div&gt;from DB&lt;/div&gt;" style="html=1;verticalAlign=bottom;endArrow=block;edgeStyle=elbowEdgeStyle;elbow=vertical;curved=0;rounded=0;" parent="1" source="PMBpUnbIwR8fAhCMbHkn-153" target="PMBpUnbIwR8fAhCMbHkn-163" edge="1">
          <mxGeometry x="0.4231" relative="1" as="geometry">
            <mxPoint x="450" y="2000" as="sourcePoint" />
            <Array as="points">
              <mxPoint x="520" y="1990" />
              <mxPoint x="545" y="1990" />
            </Array>
            <mxPoint x="570" y="2000" as="targetPoint" />
            <mxPoint as="offset" />
          </mxGeometry>
        </mxCell>
        <mxCell id="PMBpUnbIwR8fAhCMbHkn-165" value="Query Return" style="html=1;verticalAlign=bottom;endArrow=block;edgeStyle=elbowEdgeStyle;elbow=vertical;curved=0;rounded=0;" parent="1" source="PMBpUnbIwR8fAhCMbHkn-163" target="PMBpUnbIwR8fAhCMbHkn-153" edge="1">
          <mxGeometry x="-0.5" relative="1" as="geometry">
            <mxPoint x="540" y="2060" as="sourcePoint" />
            <Array as="points">
              <mxPoint x="540" y="2020" />
            </Array>
            <mxPoint x="400" y="2060" as="targetPoint" />
            <mxPoint as="offset" />
          </mxGeometry>
        </mxCell>
        <mxCell id="PMBpUnbIwR8fAhCMbHkn-166" value="" style="html=1;verticalAlign=bottom;startArrow=oval;endArrow=block;startSize=8;edgeStyle=elbowEdgeStyle;elbow=vertical;curved=0;rounded=0;" parent="1" edge="1">
          <mxGeometry relative="1" as="geometry">
            <mxPoint x="-380" y="2179.58" as="sourcePoint" />
            <Array as="points">
              <mxPoint x="-340" y="2179.58" />
            </Array>
            <mxPoint x="-215" y="2179.58" as="targetPoint" />
          </mxGeometry>
        </mxCell>
        <mxCell id="PMBpUnbIwR8fAhCMbHkn-167" value="User Selects a specific group" style="edgeLabel;html=1;align=center;verticalAlign=middle;resizable=0;points=[];" parent="PMBpUnbIwR8fAhCMbHkn-166" vertex="1" connectable="0">
          <mxGeometry x="0.0331" y="1" relative="1" as="geometry">
            <mxPoint x="-4" y="-9" as="offset" />
          </mxGeometry>
        </mxCell>
        <mxCell id="PMBpUnbIwR8fAhCMbHkn-168" value="New View Request" style="html=1;verticalAlign=bottom;endArrow=block;edgeStyle=elbowEdgeStyle;elbow=horizontal;curved=0;rounded=0;" parent="1" source="PMBpUnbIwR8fAhCMbHkn-135" target="PMBpUnbIwR8fAhCMbHkn-149" edge="1">
          <mxGeometry relative="1" as="geometry">
            <mxPoint x="-210" y="2190" as="sourcePoint" />
            <Array as="points">
              <mxPoint x="-145" y="2190" />
            </Array>
            <mxPoint x="-100" y="2190" as="targetPoint" />
          </mxGeometry>
        </mxCell>
        <mxCell id="PMBpUnbIwR8fAhCMbHkn-169" value="Model Request Sent to&lt;div&gt;Controller&lt;/div&gt;" style="html=1;verticalAlign=bottom;endArrow=block;edgeStyle=elbowEdgeStyle;elbow=vertical;curved=0;rounded=0;" parent="1" source="PMBpUnbIwR8fAhCMbHkn-149" target="PMBpUnbIwR8fAhCMbHkn-146" edge="1">
          <mxGeometry relative="1" as="geometry">
            <mxPoint x="-75" y="2200" as="sourcePoint" />
            <Array as="points">
              <mxPoint x="5" y="2200" />
            </Array>
            <mxPoint x="45" y="2200" as="targetPoint" />
          </mxGeometry>
        </mxCell>
        <mxCell id="PMBpUnbIwR8fAhCMbHkn-170" value="Model Request" style="html=1;verticalAlign=bottom;endArrow=block;edgeStyle=elbowEdgeStyle;elbow=vertical;curved=0;rounded=0;" parent="1" source="PMBpUnbIwR8fAhCMbHkn-146" target="PMBpUnbIwR8fAhCMbHkn-143" edge="1">
          <mxGeometry relative="1" as="geometry">
            <mxPoint x="55" y="2220" as="sourcePoint" />
            <Array as="points">
              <mxPoint x="140" y="2220" />
            </Array>
            <mxPoint x="165" y="2220" as="targetPoint" />
          </mxGeometry>
        </mxCell>
        <mxCell id="PMBpUnbIwR8fAhCMbHkn-171" value="Returns Model with&amp;nbsp;&lt;div&gt;only events&amp;nbsp;&lt;/div&gt;&lt;div&gt;matching criteria&lt;/div&gt;" style="html=1;verticalAlign=bottom;endArrow=block;edgeStyle=elbowEdgeStyle;elbow=vertical;curved=0;rounded=0;" parent="1" source="PMBpUnbIwR8fAhCMbHkn-143" edge="1">
          <mxGeometry relative="1" as="geometry">
            <mxPoint x="160" y="2360" as="sourcePoint" />
            <Array as="points">
              <mxPoint x="50" y="2370" />
            </Array>
            <mxPoint x="45" y="2370" as="targetPoint" />
          </mxGeometry>
        </mxCell>
        <mxCell id="PMBpUnbIwR8fAhCMbHkn-172" value="Request Return" style="html=1;verticalAlign=bottom;endArrow=block;edgeStyle=elbowEdgeStyle;elbow=vertical;curved=0;rounded=0;" parent="1" source="PMBpUnbIwR8fAhCMbHkn-146" target="PMBpUnbIwR8fAhCMbHkn-149" edge="1">
          <mxGeometry relative="1" as="geometry">
            <mxPoint x="30" y="2390" as="sourcePoint" />
            <Array as="points">
              <mxPoint x="-60" y="2390" />
            </Array>
            <mxPoint x="-90" y="2390" as="targetPoint" />
          </mxGeometry>
        </mxCell>
        <mxCell id="PMBpUnbIwR8fAhCMbHkn-173" value="Filtered View&amp;nbsp;&lt;div&gt;Returned&lt;/div&gt;" style="html=1;verticalAlign=bottom;endArrow=block;edgeStyle=elbowEdgeStyle;elbow=vertical;curved=0;rounded=0;" parent="1" source="PMBpUnbIwR8fAhCMbHkn-149" target="PMBpUnbIwR8fAhCMbHkn-135" edge="1">
          <mxGeometry relative="1" as="geometry">
            <mxPoint x="-110" y="2410" as="sourcePoint" />
            <Array as="points">
              <mxPoint x="-195" y="2410" />
            </Array>
            <mxPoint x="-220" y="2410" as="targetPoint" />
          </mxGeometry>
        </mxCell>
        <mxCell id="PMBpUnbIwR8fAhCMbHkn-174" value="Image Service" style="shape=umlLifeline;perimeter=lifelinePerimeter;whiteSpace=wrap;html=1;container=0;dropTarget=0;collapsible=0;recursiveResize=0;outlineConnect=0;portConstraint=eastwest;newEdgeStyle={&quot;edgeStyle&quot;:&quot;elbowEdgeStyle&quot;,&quot;elbow&quot;:&quot;vertical&quot;,&quot;curved&quot;:0,&quot;rounded&quot;:0};" parent="1" vertex="1">
          <mxGeometry x="910" y="1840" width="100" height="610" as="geometry" />
        </mxCell>
        <mxCell id="DuXq8aAM7IM7Aar4G6KB-7" value="" style="html=1;points=[];perimeter=orthogonalPerimeter;outlineConnect=0;targetShapes=umlLifeline;portConstraint=eastwest;newEdgeStyle={&quot;edgeStyle&quot;:&quot;elbowEdgeStyle&quot;,&quot;elbow&quot;:&quot;vertical&quot;,&quot;curved&quot;:0,&quot;rounded&quot;:0};" parent="PMBpUnbIwR8fAhCMbHkn-174" vertex="1">
          <mxGeometry x="45" y="447.5" width="10" height="40" as="geometry" />
        </mxCell>
        <mxCell id="PMBpUnbIwR8fAhCMbHkn-176" value="Image Database" style="shape=umlLifeline;perimeter=lifelinePerimeter;whiteSpace=wrap;html=1;container=0;dropTarget=0;collapsible=0;recursiveResize=0;outlineConnect=0;portConstraint=eastwest;newEdgeStyle={&quot;edgeStyle&quot;:&quot;elbowEdgeStyle&quot;,&quot;elbow&quot;:&quot;vertical&quot;,&quot;curved&quot;:0,&quot;rounded&quot;:0};" parent="1" vertex="1">
          <mxGeometry x="1060" y="1840" width="100" height="610" as="geometry" />
        </mxCell>
        <mxCell id="PMBpUnbIwR8fAhCMbHkn-177" value="" style="html=1;points=[];perimeter=orthogonalPerimeter;outlineConnect=0;targetShapes=umlLifeline;portConstraint=eastwest;newEdgeStyle={&quot;edgeStyle&quot;:&quot;elbowEdgeStyle&quot;,&quot;elbow&quot;:&quot;vertical&quot;,&quot;curved&quot;:0,&quot;rounded&quot;:0};" parent="PMBpUnbIwR8fAhCMbHkn-176" vertex="1">
          <mxGeometry x="45" y="450" width="10" height="35" as="geometry" />
        </mxCell>
        <mxCell id="PMBpUnbIwR8fAhCMbHkn-178" value="PubSub Request Event Images" style="html=1;verticalAlign=bottom;endArrow=block;edgeStyle=elbowEdgeStyle;elbow=vertical;curved=0;rounded=0;" parent="1" source="PMBpUnbIwR8fAhCMbHkn-233" target="PMBpUnbIwR8fAhCMbHkn-175" edge="1">
          <mxGeometry x="0.1852" relative="1" as="geometry">
            <mxPoint x="790" y="2060" as="sourcePoint" />
            <Array as="points">
              <mxPoint x="690" y="2280" />
              <mxPoint x="710" y="2050" />
            </Array>
            <mxPoint x="730" y="2050" as="targetPoint" />
            <mxPoint as="offset" />
          </mxGeometry>
        </mxCell>
        <mxCell id="PMBpUnbIwR8fAhCMbHkn-179" value="Request Images" style="html=1;verticalAlign=bottom;endArrow=block;edgeStyle=elbowEdgeStyle;elbow=vertical;curved=0;rounded=0;" parent="1" source="PMBpUnbIwR8fAhCMbHkn-175" target="DuXq8aAM7IM7Aar4G6KB-7" edge="1">
          <mxGeometry relative="1" as="geometry">
            <mxPoint x="880" y="2060" as="sourcePoint" />
            <Array as="points">
              <mxPoint x="920" y="2290" />
            </Array>
            <mxPoint x="880" y="2290" as="targetPoint" />
            <mxPoint as="offset" />
          </mxGeometry>
        </mxCell>
        <mxCell id="PMBpUnbIwR8fAhCMbHkn-180" value="Return collected Images" style="html=1;verticalAlign=bottom;endArrow=block;edgeStyle=elbowEdgeStyle;elbow=vertical;curved=0;rounded=0;" parent="1" target="PMBpUnbIwR8fAhCMbHkn-175" edge="1">
          <mxGeometry x="0.3333" relative="1" as="geometry">
            <mxPoint x="890" y="2320" as="sourcePoint" />
            <Array as="points">
              <mxPoint x="960" y="2320" />
            </Array>
            <mxPoint x="830" y="2080" as="targetPoint" />
            <mxPoint as="offset" />
          </mxGeometry>
        </mxCell>
        <mxCell id="PMBpUnbIwR8fAhCMbHkn-181" value="Return collected Event Images" style="html=1;verticalAlign=bottom;endArrow=block;edgeStyle=elbowEdgeStyle;elbow=vertical;curved=0;rounded=0;" parent="1" source="PMBpUnbIwR8fAhCMbHkn-175" target="PMBpUnbIwR8fAhCMbHkn-233" edge="1">
          <mxGeometry x="-0.2593" relative="1" as="geometry">
            <mxPoint x="750" y="2090" as="sourcePoint" />
            <Array as="points">
              <mxPoint x="710" y="2330" />
            </Array>
            <mxPoint x="790" y="2100" as="targetPoint" />
            <mxPoint as="offset" />
          </mxGeometry>
        </mxCell>
        <mxCell id="PMBpUnbIwR8fAhCMbHkn-232" value="Event Service" style="shape=umlLifeline;perimeter=lifelinePerimeter;whiteSpace=wrap;html=1;container=0;dropTarget=0;collapsible=0;recursiveResize=0;outlineConnect=0;portConstraint=eastwest;newEdgeStyle={&quot;edgeStyle&quot;:&quot;elbowEdgeStyle&quot;,&quot;elbow&quot;:&quot;vertical&quot;,&quot;curved&quot;:0,&quot;rounded&quot;:0};" parent="1" vertex="1">
          <mxGeometry x="515" y="1840" width="100" height="610" as="geometry" />
        </mxCell>
        <mxCell id="PMBpUnbIwR8fAhCMbHkn-233" value="" style="html=1;points=[];perimeter=orthogonalPerimeter;outlineConnect=0;targetShapes=umlLifeline;portConstraint=eastwest;newEdgeStyle={&quot;edgeStyle&quot;:&quot;elbowEdgeStyle&quot;,&quot;elbow&quot;:&quot;vertical&quot;,&quot;curved&quot;:0,&quot;rounded&quot;:0};" parent="PMBpUnbIwR8fAhCMbHkn-232" vertex="1">
          <mxGeometry x="45" y="430" width="10" height="120" as="geometry" />
        </mxCell>
        <mxCell id="PMBpUnbIwR8fAhCMbHkn-235" value="&amp;nbsp;Requesting&amp;nbsp;&lt;div&gt;Information&lt;/div&gt;" style="html=1;verticalAlign=bottom;endArrow=block;edgeStyle=elbowEdgeStyle;elbow=vertical;curved=0;rounded=0;" parent="1" source="PMBpUnbIwR8fAhCMbHkn-143" target="PMBpUnbIwR8fAhCMbHkn-234" edge="1">
          <mxGeometry relative="1" as="geometry">
            <mxPoint x="165" y="2230" as="sourcePoint" />
            <Array as="points">
              <mxPoint x="230" y="2230" />
              <mxPoint x="255" y="2220" />
            </Array>
            <mxPoint x="275" y="2230" as="targetPoint" />
          </mxGeometry>
        </mxCell>
        <mxCell id="PMBpUnbIwR8fAhCMbHkn-236" value="Request Return" style="html=1;verticalAlign=bottom;endArrow=block;edgeStyle=elbowEdgeStyle;elbow=vertical;curved=0;rounded=0;" parent="1" source="PMBpUnbIwR8fAhCMbHkn-234" target="PMBpUnbIwR8fAhCMbHkn-143" edge="1">
          <mxGeometry relative="1" as="geometry">
            <mxPoint x="270" y="2370" as="sourcePoint" />
            <Array as="points">
              <mxPoint x="185" y="2370" />
            </Array>
            <mxPoint x="160" y="2370" as="targetPoint" />
          </mxGeometry>
        </mxCell>
        <mxCell id="PMBpUnbIwR8fAhCMbHkn-237" value="Return Group&#39;s Events" style="html=1;verticalAlign=bottom;endArrow=block;edgeStyle=elbowEdgeStyle;elbow=horizontal;curved=0;rounded=0;" parent="1" source="PMBpUnbIwR8fAhCMbHkn-233" target="PMBpUnbIwR8fAhCMbHkn-234" edge="1">
          <mxGeometry relative="1" as="geometry">
            <mxPoint x="520" y="2350" as="sourcePoint" />
            <Array as="points">
              <mxPoint x="445" y="2350" />
            </Array>
            <mxPoint x="380" y="2350" as="targetPoint" />
          </mxGeometry>
        </mxCell>
        <mxCell id="PMBpUnbIwR8fAhCMbHkn-238" value="Reqest Group&#39;s Events" style="html=1;verticalAlign=bottom;endArrow=block;edgeStyle=elbowEdgeStyle;elbow=vertical;curved=0;rounded=0;" parent="1" source="PMBpUnbIwR8fAhCMbHkn-234" target="PMBpUnbIwR8fAhCMbHkn-233" edge="1">
          <mxGeometry x="0.4182" relative="1" as="geometry">
            <mxPoint x="355" y="2270" as="sourcePoint" />
            <Array as="points">
              <mxPoint x="425" y="2270" />
              <mxPoint x="450" y="2260" />
            </Array>
            <mxPoint x="495" y="2270" as="targetPoint" />
            <mxPoint as="offset" />
          </mxGeometry>
        </mxCell>
        <mxCell id="PMBpUnbIwR8fAhCMbHkn-239" value="Event Service" style="shape=umlLifeline;perimeter=lifelinePerimeter;whiteSpace=wrap;html=1;container=0;dropTarget=0;collapsible=0;recursiveResize=0;outlineConnect=0;portConstraint=eastwest;newEdgeStyle={&quot;edgeStyle&quot;:&quot;elbowEdgeStyle&quot;,&quot;elbow&quot;:&quot;vertical&quot;,&quot;curved&quot;:0,&quot;rounded&quot;:0};" parent="1" vertex="1">
          <mxGeometry x="-5" y="2650" width="100" height="360" as="geometry" />
        </mxCell>
        <mxCell id="PMBpUnbIwR8fAhCMbHkn-240" value="" style="html=1;points=[];perimeter=orthogonalPerimeter;outlineConnect=0;targetShapes=umlLifeline;portConstraint=eastwest;newEdgeStyle={&quot;edgeStyle&quot;:&quot;elbowEdgeStyle&quot;,&quot;elbow&quot;:&quot;vertical&quot;,&quot;curved&quot;:0,&quot;rounded&quot;:0};" parent="PMBpUnbIwR8fAhCMbHkn-239" vertex="1">
          <mxGeometry x="45" y="80" width="10" height="200" as="geometry" />
        </mxCell>
        <mxCell id="PMBpUnbIwR8fAhCMbHkn-241" value="API Gateway" style="shape=umlLifeline;perimeter=lifelinePerimeter;whiteSpace=wrap;html=1;container=0;dropTarget=0;collapsible=0;recursiveResize=0;outlineConnect=0;portConstraint=eastwest;newEdgeStyle={&quot;edgeStyle&quot;:&quot;elbowEdgeStyle&quot;,&quot;elbow&quot;:&quot;vertical&quot;,&quot;curved&quot;:0,&quot;rounded&quot;:0};" parent="1" vertex="1">
          <mxGeometry x="-150" y="2620" width="100" height="390" as="geometry" />
        </mxCell>
        <mxCell id="PMBpUnbIwR8fAhCMbHkn-242" value="" style="html=1;points=[];perimeter=orthogonalPerimeter;outlineConnect=0;targetShapes=umlLifeline;portConstraint=eastwest;newEdgeStyle={&quot;edgeStyle&quot;:&quot;elbowEdgeStyle&quot;,&quot;elbow&quot;:&quot;vertical&quot;,&quot;curved&quot;:0,&quot;rounded&quot;:0};" parent="PMBpUnbIwR8fAhCMbHkn-241" vertex="1">
          <mxGeometry x="45" y="100" width="10" height="240" as="geometry" />
        </mxCell>
        <mxCell id="PMBpUnbIwR8fAhCMbHkn-243" value="" style="html=1;verticalAlign=bottom;startArrow=oval;endArrow=block;startSize=8;edgeStyle=elbowEdgeStyle;elbow=vertical;curved=0;rounded=0;" parent="PMBpUnbIwR8fAhCMbHkn-241" target="PMBpUnbIwR8fAhCMbHkn-242" edge="1">
          <mxGeometry relative="1" as="geometry">
            <mxPoint x="-110" y="100" as="sourcePoint" />
            <Array as="points">
              <mxPoint x="-30" y="100" />
            </Array>
          </mxGeometry>
        </mxCell>
        <mxCell id="PMBpUnbIwR8fAhCMbHkn-244" value="Join button pressed and request&lt;div&gt;&amp;nbsp;sent through MVC&lt;/div&gt;" style="edgeLabel;html=1;align=center;verticalAlign=middle;resizable=0;points=[];" parent="PMBpUnbIwR8fAhCMbHkn-243" vertex="1" connectable="0">
          <mxGeometry x="0.0331" y="1" relative="1" as="geometry">
            <mxPoint x="-14" y="-19" as="offset" />
          </mxGeometry>
        </mxCell>
        <mxCell id="PMBpUnbIwR8fAhCMbHkn-245" value="User information passed&lt;div&gt;to event service&lt;/div&gt;" style="html=1;verticalAlign=bottom;endArrow=block;edgeStyle=elbowEdgeStyle;elbow=horizontal;curved=0;rounded=0;" parent="1" source="PMBpUnbIwR8fAhCMbHkn-242" target="PMBpUnbIwR8fAhCMbHkn-240" edge="1">
          <mxGeometry relative="1" as="geometry">
            <mxPoint x="-80" y="2730" as="sourcePoint" />
            <Array as="points">
              <mxPoint x="-30" y="2730" />
            </Array>
            <mxPoint x="-10" y="2730" as="targetPoint" />
          </mxGeometry>
        </mxCell>
        <mxCell id="PMBpUnbIwR8fAhCMbHkn-246" value="Database" style="shape=umlLifeline;perimeter=lifelinePerimeter;whiteSpace=wrap;html=1;container=0;dropTarget=0;collapsible=0;recursiveResize=0;outlineConnect=0;portConstraint=eastwest;newEdgeStyle={&quot;edgeStyle&quot;:&quot;elbowEdgeStyle&quot;,&quot;elbow&quot;:&quot;vertical&quot;,&quot;curved&quot;:0,&quot;rounded&quot;:0};" parent="1" vertex="1">
          <mxGeometry x="280" y="2650" width="100" height="360" as="geometry" />
        </mxCell>
        <mxCell id="PMBpUnbIwR8fAhCMbHkn-247" value="" style="html=1;points=[];perimeter=orthogonalPerimeter;outlineConnect=0;targetShapes=umlLifeline;portConstraint=eastwest;newEdgeStyle={&quot;edgeStyle&quot;:&quot;elbowEdgeStyle&quot;,&quot;elbow&quot;:&quot;vertical&quot;,&quot;curved&quot;:0,&quot;rounded&quot;:0};" parent="PMBpUnbIwR8fAhCMbHkn-246" vertex="1">
          <mxGeometry x="45" y="150" width="10" height="20" as="geometry" />
        </mxCell>
        <mxCell id="PMBpUnbIwR8fAhCMbHkn-248" value="Event Store" style="shape=umlLifeline;perimeter=lifelinePerimeter;whiteSpace=wrap;html=1;container=0;dropTarget=0;collapsible=0;recursiveResize=0;outlineConnect=0;portConstraint=eastwest;newEdgeStyle={&quot;edgeStyle&quot;:&quot;elbowEdgeStyle&quot;,&quot;elbow&quot;:&quot;vertical&quot;,&quot;curved&quot;:0,&quot;rounded&quot;:0};" parent="1" vertex="1">
          <mxGeometry x="155" y="2650" width="100" height="360" as="geometry" />
        </mxCell>
        <mxCell id="PMBpUnbIwR8fAhCMbHkn-249" value="" style="html=1;points=[];perimeter=orthogonalPerimeter;outlineConnect=0;targetShapes=umlLifeline;portConstraint=eastwest;newEdgeStyle={&quot;edgeStyle&quot;:&quot;elbowEdgeStyle&quot;,&quot;elbow&quot;:&quot;vertical&quot;,&quot;curved&quot;:0,&quot;rounded&quot;:0};" parent="PMBpUnbIwR8fAhCMbHkn-248" vertex="1">
          <mxGeometry x="45" y="100" width="10" height="30" as="geometry" />
        </mxCell>
        <mxCell id="PMBpUnbIwR8fAhCMbHkn-250" value="Sequence stored" style="html=1;verticalAlign=bottom;endArrow=block;edgeStyle=elbowEdgeStyle;elbow=vertical;curved=0;rounded=0;" parent="1" source="PMBpUnbIwR8fAhCMbHkn-240" target="PMBpUnbIwR8fAhCMbHkn-249" edge="1">
          <mxGeometry relative="1" as="geometry">
            <mxPoint x="40" y="2750" as="sourcePoint" />
            <Array as="points">
              <mxPoint x="105" y="2750" />
            </Array>
            <mxPoint x="130" y="2750" as="targetPoint" />
          </mxGeometry>
        </mxCell>
        <mxCell id="PMBpUnbIwR8fAhCMbHkn-251" value="&lt;font style=&quot;font-size: 24px;&quot;&gt;&lt;b&gt;Event Registration After Dedicated event page is loaded&lt;/b&gt;&lt;/font&gt;" style="text;html=1;align=center;verticalAlign=middle;resizable=0;points=[];autosize=1;strokeColor=none;fillColor=none;" parent="1" vertex="1">
          <mxGeometry x="-260" y="2570" width="660" height="40" as="geometry" />
        </mxCell>
        <mxCell id="PMBpUnbIwR8fAhCMbHkn-252" value="Success Callback" style="html=1;verticalAlign=bottom;endArrow=block;edgeStyle=elbowEdgeStyle;elbow=vertical;curved=0;rounded=0;" parent="1" source="PMBpUnbIwR8fAhCMbHkn-249" edge="1">
          <mxGeometry x="-0.0667" relative="1" as="geometry">
            <mxPoint x="195" y="2780" as="sourcePoint" />
            <Array as="points">
              <mxPoint x="135" y="2780" />
            </Array>
            <mxPoint x="50" y="2780" as="targetPoint" />
            <mxPoint as="offset" />
          </mxGeometry>
        </mxCell>
        <mxCell id="PMBpUnbIwR8fAhCMbHkn-253" value="User information&amp;nbsp;&lt;div&gt;sent to database&lt;/div&gt;" style="html=1;verticalAlign=bottom;endArrow=block;edgeStyle=elbowEdgeStyle;elbow=vertical;curved=0;rounded=0;" parent="1" source="PMBpUnbIwR8fAhCMbHkn-240" target="PMBpUnbIwR8fAhCMbHkn-247" edge="1">
          <mxGeometry x="0.6" relative="1" as="geometry">
            <mxPoint x="80" y="2800" as="sourcePoint" />
            <Array as="points">
              <mxPoint x="135" y="2800" />
            </Array>
            <mxPoint x="230" y="2800" as="targetPoint" />
            <mxPoint as="offset" />
          </mxGeometry>
        </mxCell>
        <mxCell id="PMBpUnbIwR8fAhCMbHkn-254" value="User registered to event in DB" style="html=1;verticalAlign=bottom;endArrow=block;edgeStyle=elbowEdgeStyle;elbow=vertical;curved=0;rounded=0;" parent="1" source="PMBpUnbIwR8fAhCMbHkn-247" target="PMBpUnbIwR8fAhCMbHkn-240" edge="1">
          <mxGeometry x="-0.0714" relative="1" as="geometry">
            <mxPoint x="220" y="2829.66" as="sourcePoint" />
            <Array as="points">
              <mxPoint x="200" y="2820" />
            </Array>
            <mxPoint x="70" y="2829.66" as="targetPoint" />
            <mxPoint as="offset" />
          </mxGeometry>
        </mxCell>
        <mxCell id="PMBpUnbIwR8fAhCMbHkn-255" value="Success Callback" style="html=1;verticalAlign=bottom;endArrow=block;edgeStyle=elbowEdgeStyle;elbow=vertical;curved=0;rounded=0;" parent="1" edge="1">
          <mxGeometry relative="1" as="geometry">
            <mxPoint x="40" y="2930" as="sourcePoint" />
            <Array as="points">
              <mxPoint x="-60" y="2930" />
            </Array>
            <mxPoint x="-95" y="2930" as="targetPoint" />
          </mxGeometry>
        </mxCell>
        <mxCell id="PMBpUnbIwR8fAhCMbHkn-256" value="New Model Information" style="html=1;verticalAlign=bottom;endArrow=block;edgeStyle=elbowEdgeStyle;elbow=vertical;curved=0;rounded=0;" parent="1" edge="1">
          <mxGeometry x="-0.0917" relative="1" as="geometry">
            <mxPoint x="-105" y="2960" as="sourcePoint" />
            <Array as="points" />
            <mxPoint x="-270" y="2960" as="targetPoint" />
            <mxPoint as="offset" />
          </mxGeometry>
        </mxCell>
        <mxCell id="PMBpUnbIwR8fAhCMbHkn-257" value="Event Store" style="shape=umlLifeline;perimeter=lifelinePerimeter;whiteSpace=wrap;html=1;container=0;dropTarget=0;collapsible=0;recursiveResize=0;outlineConnect=0;portConstraint=eastwest;newEdgeStyle={&quot;edgeStyle&quot;:&quot;elbowEdgeStyle&quot;,&quot;elbow&quot;:&quot;vertical&quot;,&quot;curved&quot;:0,&quot;rounded&quot;:0};" parent="1" vertex="1">
          <mxGeometry x="1170" y="1840" width="100" height="610" as="geometry" />
        </mxCell>
        <mxCell id="PMBpUnbIwR8fAhCMbHkn-258" value="" style="html=1;points=[];perimeter=orthogonalPerimeter;outlineConnect=0;targetShapes=umlLifeline;portConstraint=eastwest;newEdgeStyle={&quot;edgeStyle&quot;:&quot;elbowEdgeStyle&quot;,&quot;elbow&quot;:&quot;vertical&quot;,&quot;curved&quot;:0,&quot;rounded&quot;:0};" parent="PMBpUnbIwR8fAhCMbHkn-257" vertex="1">
          <mxGeometry x="45" y="520" width="10" height="30" as="geometry" />
        </mxCell>
        <mxCell id="PMBpUnbIwR8fAhCMbHkn-266" value="" style="html=1;points=[];perimeter=orthogonalPerimeter;outlineConnect=0;targetShapes=umlLifeline;portConstraint=eastwest;newEdgeStyle={&quot;edgeStyle&quot;:&quot;elbowEdgeStyle&quot;,&quot;elbow&quot;:&quot;vertical&quot;,&quot;curved&quot;:0,&quot;rounded&quot;:0};" parent="PMBpUnbIwR8fAhCMbHkn-257" vertex="1">
          <mxGeometry x="45" y="230" width="10" height="30" as="geometry" />
        </mxCell>
        <mxCell id="PMBpUnbIwR8fAhCMbHkn-259" value="Event Store" style="shape=umlLifeline;perimeter=lifelinePerimeter;whiteSpace=wrap;html=1;container=0;dropTarget=0;collapsible=0;recursiveResize=0;outlineConnect=0;portConstraint=eastwest;newEdgeStyle={&quot;edgeStyle&quot;:&quot;elbowEdgeStyle&quot;,&quot;elbow&quot;:&quot;vertical&quot;,&quot;curved&quot;:0,&quot;rounded&quot;:0};" parent="1" vertex="1">
          <mxGeometry x="1110" y="1110" width="100" height="610" as="geometry" />
        </mxCell>
        <mxCell id="PMBpUnbIwR8fAhCMbHkn-260" value="" style="html=1;points=[];perimeter=orthogonalPerimeter;outlineConnect=0;targetShapes=umlLifeline;portConstraint=eastwest;newEdgeStyle={&quot;edgeStyle&quot;:&quot;elbowEdgeStyle&quot;,&quot;elbow&quot;:&quot;vertical&quot;,&quot;curved&quot;:0,&quot;rounded&quot;:0};" parent="PMBpUnbIwR8fAhCMbHkn-259" vertex="1">
          <mxGeometry x="45" y="270" width="10" height="30" as="geometry" />
        </mxCell>
        <mxCell id="PMBpUnbIwR8fAhCMbHkn-262" value="Event series stored" style="html=1;verticalAlign=bottom;endArrow=block;edgeStyle=elbowEdgeStyle;elbow=vertical;curved=0;rounded=0;" parent="1" source="PMBpUnbIwR8fAhCMbHkn-53" target="PMBpUnbIwR8fAhCMbHkn-260" edge="1">
          <mxGeometry x="0.0049" relative="1" as="geometry">
            <mxPoint x="500" y="1380" as="sourcePoint" />
            <Array as="points">
              <mxPoint x="585" y="1380" />
              <mxPoint x="610" y="1380" />
            </Array>
            <mxPoint x="630" y="1380" as="targetPoint" />
            <mxPoint as="offset" />
          </mxGeometry>
        </mxCell>
        <mxCell id="PMBpUnbIwR8fAhCMbHkn-263" value="Success&amp;nbsp;" style="html=1;verticalAlign=bottom;endArrow=block;edgeStyle=elbowEdgeStyle;elbow=vertical;curved=0;rounded=0;" parent="1" source="PMBpUnbIwR8fAhCMbHkn-260" target="PMBpUnbIwR8fAhCMbHkn-53" edge="1">
          <mxGeometry relative="1" as="geometry">
            <mxPoint x="685" y="1414.5" as="sourcePoint" />
            <Array as="points">
              <mxPoint x="760" y="1410" />
            </Array>
            <mxPoint x="555" y="1414.5" as="targetPoint" />
          </mxGeometry>
        </mxCell>
        <mxCell id="PMBpUnbIwR8fAhCMbHkn-264" value="Event series stored" style="html=1;verticalAlign=bottom;endArrow=block;edgeStyle=elbowEdgeStyle;elbow=vertical;curved=0;rounded=0;" parent="1" source="PMBpUnbIwR8fAhCMbHkn-153" target="PMBpUnbIwR8fAhCMbHkn-266" edge="1">
          <mxGeometry x="0.141" relative="1" as="geometry">
            <mxPoint x="510" y="2070" as="sourcePoint" />
            <Array as="points">
              <mxPoint x="610" y="2070" />
              <mxPoint x="635" y="2070" />
            </Array>
            <mxPoint x="1060" y="2070" as="targetPoint" />
            <mxPoint as="offset" />
          </mxGeometry>
        </mxCell>
        <mxCell id="PMBpUnbIwR8fAhCMbHkn-265" value="Success&amp;nbsp;" style="html=1;verticalAlign=bottom;endArrow=block;edgeStyle=elbowEdgeStyle;elbow=vertical;curved=0;rounded=0;" parent="1" source="PMBpUnbIwR8fAhCMbHkn-266" target="PMBpUnbIwR8fAhCMbHkn-153" edge="1">
          <mxGeometry x="-0.0897" relative="1" as="geometry">
            <mxPoint x="1135" y="2090" as="sourcePoint" />
            <Array as="points">
              <mxPoint x="785" y="2100" />
            </Array>
            <mxPoint x="510" y="2100" as="targetPoint" />
            <mxPoint as="offset" />
          </mxGeometry>
        </mxCell>
        <mxCell id="PMBpUnbIwR8fAhCMbHkn-267" value="Event series stored" style="html=1;verticalAlign=bottom;endArrow=block;edgeStyle=elbowEdgeStyle;elbow=vertical;curved=0;rounded=0;" parent="1" source="PMBpUnbIwR8fAhCMbHkn-233" target="PMBpUnbIwR8fAhCMbHkn-258" edge="1">
          <mxGeometry x="0.0049" relative="1" as="geometry">
            <mxPoint x="420" y="2360" as="sourcePoint" />
            <Array as="points">
              <mxPoint x="595" y="2360" />
              <mxPoint x="620" y="2360" />
            </Array>
            <mxPoint x="1120" y="2360" as="targetPoint" />
            <mxPoint as="offset" />
          </mxGeometry>
        </mxCell>
        <mxCell id="PMBpUnbIwR8fAhCMbHkn-268" value="Success&amp;nbsp;" style="html=1;verticalAlign=bottom;endArrow=block;edgeStyle=elbowEdgeStyle;elbow=vertical;curved=0;rounded=0;" parent="1" source="PMBpUnbIwR8fAhCMbHkn-258" target="PMBpUnbIwR8fAhCMbHkn-233" edge="1">
          <mxGeometry relative="1" as="geometry">
            <mxPoint x="1120" y="2390" as="sourcePoint" />
            <Array as="points">
              <mxPoint x="770" y="2390" />
            </Array>
            <mxPoint x="420" y="2390" as="targetPoint" />
          </mxGeometry>
        </mxCell>
        <mxCell id="DuXq8aAM7IM7Aar4G6KB-1" value="PubSub" style="shape=umlLifeline;perimeter=lifelinePerimeter;whiteSpace=wrap;html=1;container=0;dropTarget=0;collapsible=0;recursiveResize=0;outlineConnect=0;portConstraint=eastwest;newEdgeStyle={&quot;edgeStyle&quot;:&quot;elbowEdgeStyle&quot;,&quot;elbow&quot;:&quot;vertical&quot;,&quot;curved&quot;:0,&quot;rounded&quot;:0};" parent="1" vertex="1">
          <mxGeometry x="700" y="1110" width="100" height="610" as="geometry" />
        </mxCell>
        <mxCell id="PMBpUnbIwR8fAhCMbHkn-91" value="" style="html=1;points=[];perimeter=orthogonalPerimeter;outlineConnect=0;targetShapes=umlLifeline;portConstraint=eastwest;newEdgeStyle={&quot;edgeStyle&quot;:&quot;elbowEdgeStyle&quot;,&quot;elbow&quot;:&quot;vertical&quot;,&quot;curved&quot;:0,&quot;rounded&quot;:0};" parent="DuXq8aAM7IM7Aar4G6KB-1" vertex="1">
          <mxGeometry x="45" y="190" width="10" height="50" as="geometry" />
        </mxCell>
        <mxCell id="DuXq8aAM7IM7Aar4G6KB-4" value="Query for Images" style="html=1;verticalAlign=bottom;endArrow=block;edgeStyle=elbowEdgeStyle;elbow=vertical;curved=0;rounded=0;" parent="1" source="PMBpUnbIwR8fAhCMbHkn-93" target="DuXq8aAM7IM7Aar4G6KB-3" edge="1">
          <mxGeometry relative="1" as="geometry">
            <mxPoint x="930" y="1310" as="sourcePoint" />
            <Array as="points">
              <mxPoint x="950" y="1320" />
            </Array>
            <mxPoint x="980" y="1250" as="targetPoint" />
            <mxPoint as="offset" />
          </mxGeometry>
        </mxCell>
        <mxCell id="DuXq8aAM7IM7Aar4G6KB-5" value="Query Return" style="html=1;verticalAlign=bottom;endArrow=block;edgeStyle=elbowEdgeStyle;elbow=vertical;curved=0;rounded=0;" parent="1" source="DuXq8aAM7IM7Aar4G6KB-3" target="PMBpUnbIwR8fAhCMbHkn-93" edge="1">
          <mxGeometry relative="1" as="geometry">
            <mxPoint x="1090" y="1340" as="sourcePoint" />
            <Array as="points">
              <mxPoint x="1020" y="1340" />
            </Array>
            <mxPoint x="950" y="1340" as="targetPoint" />
          </mxGeometry>
        </mxCell>
        <mxCell id="DuXq8aAM7IM7Aar4G6KB-6" value="PubSub" style="shape=umlLifeline;perimeter=lifelinePerimeter;whiteSpace=wrap;html=1;container=0;dropTarget=0;collapsible=0;recursiveResize=0;outlineConnect=0;portConstraint=eastwest;newEdgeStyle={&quot;edgeStyle&quot;:&quot;elbowEdgeStyle&quot;,&quot;elbow&quot;:&quot;vertical&quot;,&quot;curved&quot;:0,&quot;rounded&quot;:0};" parent="1" vertex="1">
          <mxGeometry x="770" y="1840" width="100" height="610" as="geometry" />
        </mxCell>
        <mxCell id="PMBpUnbIwR8fAhCMbHkn-175" value="" style="html=1;points=[];perimeter=orthogonalPerimeter;outlineConnect=0;targetShapes=umlLifeline;portConstraint=eastwest;newEdgeStyle={&quot;edgeStyle&quot;:&quot;elbowEdgeStyle&quot;,&quot;elbow&quot;:&quot;vertical&quot;,&quot;curved&quot;:0,&quot;rounded&quot;:0};" parent="DuXq8aAM7IM7Aar4G6KB-6" vertex="1">
          <mxGeometry x="45" y="442.5" width="10" height="50" as="geometry" />
        </mxCell>
        <mxCell id="DuXq8aAM7IM7Aar4G6KB-9" value="Query for Images" style="html=1;verticalAlign=bottom;endArrow=block;edgeStyle=elbowEdgeStyle;elbow=vertical;curved=0;rounded=0;" parent="1" target="PMBpUnbIwR8fAhCMbHkn-177" edge="1">
          <mxGeometry relative="1" as="geometry">
            <mxPoint x="970" y="2290" as="sourcePoint" />
            <Array as="points">
              <mxPoint x="1055" y="2290" />
            </Array>
            <mxPoint x="1070" y="2290" as="targetPoint" />
            <mxPoint as="offset" />
          </mxGeometry>
        </mxCell>
        <mxCell id="DuXq8aAM7IM7Aar4G6KB-10" value="Query Return" style="html=1;verticalAlign=bottom;endArrow=block;edgeStyle=elbowEdgeStyle;elbow=vertical;curved=0;rounded=0;" parent="1" source="PMBpUnbIwR8fAhCMbHkn-177" edge="1">
          <mxGeometry x="-0.0833" relative="1" as="geometry">
            <mxPoint x="1085" y="2320" as="sourcePoint" />
            <Array as="points">
              <mxPoint x="1080" y="2320" />
            </Array>
            <mxPoint x="965" y="2320" as="targetPoint" />
            <mxPoint as="offset" />
          </mxGeometry>
        </mxCell>
        <mxCell id="MHONRahtCttp2nSO6O5I-1" value="Application" style="shape=umlLifeline;perimeter=lifelinePerimeter;whiteSpace=wrap;html=1;container=0;dropTarget=0;collapsible=0;recursiveResize=0;outlineConnect=0;portConstraint=eastwest;newEdgeStyle={&quot;edgeStyle&quot;:&quot;elbowEdgeStyle&quot;,&quot;elbow&quot;:&quot;vertical&quot;,&quot;curved&quot;:0,&quot;rounded&quot;:0};" parent="1" vertex="1">
          <mxGeometry x="-130" y="-510" width="100" height="360" as="geometry" />
        </mxCell>
        <mxCell id="MHONRahtCttp2nSO6O5I-2" value="" style="html=1;points=[];perimeter=orthogonalPerimeter;outlineConnect=0;targetShapes=umlLifeline;portConstraint=eastwest;newEdgeStyle={&quot;edgeStyle&quot;:&quot;elbowEdgeStyle&quot;,&quot;elbow&quot;:&quot;vertical&quot;,&quot;curved&quot;:0,&quot;rounded&quot;:0};" parent="MHONRahtCttp2nSO6O5I-1" vertex="1">
          <mxGeometry x="45" y="70" width="10" height="270" as="geometry" />
        </mxCell>
        <mxCell id="MHONRahtCttp2nSO6O5I-3" value="" style="html=1;verticalAlign=bottom;startArrow=oval;endArrow=block;startSize=8;edgeStyle=elbowEdgeStyle;elbow=vertical;curved=0;rounded=0;" parent="MHONRahtCttp2nSO6O5I-1" target="MHONRahtCttp2nSO6O5I-2" edge="1">
          <mxGeometry relative="1" as="geometry">
            <mxPoint x="-80" y="70" as="sourcePoint" />
            <Array as="points">
              <mxPoint x="-80" y="70" />
            </Array>
          </mxGeometry>
        </mxCell>
        <mxCell id="MHONRahtCttp2nSO6O5I-4" value="User Action" style="edgeLabel;html=1;align=center;verticalAlign=middle;resizable=0;points=[];" parent="MHONRahtCttp2nSO6O5I-3" vertex="1" connectable="0">
          <mxGeometry x="0.0331" y="1" relative="1" as="geometry">
            <mxPoint x="-4" y="-9" as="offset" />
          </mxGeometry>
        </mxCell>
        <mxCell id="MHONRahtCttp2nSO6O5I-5" value="API Gateway" style="shape=umlLifeline;perimeter=lifelinePerimeter;whiteSpace=wrap;html=1;container=0;dropTarget=0;collapsible=0;recursiveResize=0;outlineConnect=0;portConstraint=eastwest;newEdgeStyle={&quot;edgeStyle&quot;:&quot;elbowEdgeStyle&quot;,&quot;elbow&quot;:&quot;vertical&quot;,&quot;curved&quot;:0,&quot;rounded&quot;:0};" parent="1" vertex="1">
          <mxGeometry x="360" y="-510" width="100" height="360" as="geometry" />
        </mxCell>
        <mxCell id="MHONRahtCttp2nSO6O5I-6" value="" style="html=1;points=[];perimeter=orthogonalPerimeter;outlineConnect=0;targetShapes=umlLifeline;portConstraint=eastwest;newEdgeStyle={&quot;edgeStyle&quot;:&quot;elbowEdgeStyle&quot;,&quot;elbow&quot;:&quot;vertical&quot;,&quot;curved&quot;:0,&quot;rounded&quot;:0};" parent="MHONRahtCttp2nSO6O5I-5" vertex="1">
          <mxGeometry x="45" y="130" width="10" height="130" as="geometry" />
        </mxCell>
        <mxCell id="MHONRahtCttp2nSO6O5I-7" value="View Request" style="html=1;verticalAlign=bottom;endArrow=block;edgeStyle=elbowEdgeStyle;elbow=horizontal;curved=0;rounded=0;" parent="1" source="MHONRahtCttp2nSO6O5I-2" target="MHONRahtCttp2nSO6O5I-13" edge="1">
          <mxGeometry relative="1" as="geometry">
            <mxPoint x="-60" y="-430" as="sourcePoint" />
            <Array as="points">
              <mxPoint x="-10" y="-430" />
            </Array>
            <mxPoint x="10" y="-430" as="targetPoint" />
          </mxGeometry>
        </mxCell>
        <mxCell id="MHONRahtCttp2nSO6O5I-8" value="Model" style="shape=umlLifeline;perimeter=lifelinePerimeter;whiteSpace=wrap;html=1;container=0;dropTarget=0;collapsible=0;recursiveResize=0;outlineConnect=0;portConstraint=eastwest;newEdgeStyle={&quot;edgeStyle&quot;:&quot;elbowEdgeStyle&quot;,&quot;elbow&quot;:&quot;vertical&quot;,&quot;curved&quot;:0,&quot;rounded&quot;:0};" parent="1" vertex="1">
          <mxGeometry x="240" y="-510" width="100" height="360" as="geometry" />
        </mxCell>
        <mxCell id="MHONRahtCttp2nSO6O5I-9" value="" style="html=1;points=[];perimeter=orthogonalPerimeter;outlineConnect=0;targetShapes=umlLifeline;portConstraint=eastwest;newEdgeStyle={&quot;edgeStyle&quot;:&quot;elbowEdgeStyle&quot;,&quot;elbow&quot;:&quot;vertical&quot;,&quot;curved&quot;:0,&quot;rounded&quot;:0};" parent="MHONRahtCttp2nSO6O5I-8" vertex="1">
          <mxGeometry x="45" y="120" width="10" height="160" as="geometry" />
        </mxCell>
        <mxCell id="MHONRahtCttp2nSO6O5I-10" value="Controller" style="shape=umlLifeline;perimeter=lifelinePerimeter;whiteSpace=wrap;html=1;container=0;dropTarget=0;collapsible=0;recursiveResize=0;outlineConnect=0;portConstraint=eastwest;newEdgeStyle={&quot;edgeStyle&quot;:&quot;elbowEdgeStyle&quot;,&quot;elbow&quot;:&quot;vertical&quot;,&quot;curved&quot;:0,&quot;rounded&quot;:0};" parent="1" vertex="1">
          <mxGeometry x="120" y="-510" width="100" height="360" as="geometry" />
        </mxCell>
        <mxCell id="MHONRahtCttp2nSO6O5I-11" value="" style="html=1;points=[];perimeter=orthogonalPerimeter;outlineConnect=0;targetShapes=umlLifeline;portConstraint=eastwest;newEdgeStyle={&quot;edgeStyle&quot;:&quot;elbowEdgeStyle&quot;,&quot;elbow&quot;:&quot;vertical&quot;,&quot;curved&quot;:0,&quot;rounded&quot;:0};" parent="MHONRahtCttp2nSO6O5I-10" vertex="1">
          <mxGeometry x="45" y="100" width="10" height="190" as="geometry" />
        </mxCell>
        <mxCell id="MHONRahtCttp2nSO6O5I-12" value="View" style="shape=umlLifeline;perimeter=lifelinePerimeter;whiteSpace=wrap;html=1;container=0;dropTarget=0;collapsible=0;recursiveResize=0;outlineConnect=0;portConstraint=eastwest;newEdgeStyle={&quot;edgeStyle&quot;:&quot;elbowEdgeStyle&quot;,&quot;elbow&quot;:&quot;vertical&quot;,&quot;curved&quot;:0,&quot;rounded&quot;:0};" parent="1" vertex="1">
          <mxGeometry x="-10" y="-510" width="100" height="360" as="geometry" />
        </mxCell>
        <mxCell id="MHONRahtCttp2nSO6O5I-13" value="" style="html=1;points=[];perimeter=orthogonalPerimeter;outlineConnect=0;targetShapes=umlLifeline;portConstraint=eastwest;newEdgeStyle={&quot;edgeStyle&quot;:&quot;elbowEdgeStyle&quot;,&quot;elbow&quot;:&quot;vertical&quot;,&quot;curved&quot;:0,&quot;rounded&quot;:0};" parent="MHONRahtCttp2nSO6O5I-12" vertex="1">
          <mxGeometry x="45" y="80" width="10" height="220" as="geometry" />
        </mxCell>
        <mxCell id="MHONRahtCttp2nSO6O5I-14" value="Model Request Sent to&lt;div&gt;Controller&lt;/div&gt;" style="html=1;verticalAlign=bottom;endArrow=block;edgeStyle=elbowEdgeStyle;elbow=vertical;curved=0;rounded=0;" parent="1" source="MHONRahtCttp2nSO6O5I-13" target="MHONRahtCttp2nSO6O5I-11" edge="1">
          <mxGeometry relative="1" as="geometry">
            <mxPoint x="60" y="-410" as="sourcePoint" />
            <Array as="points">
              <mxPoint x="125" y="-410" />
            </Array>
            <mxPoint x="150" y="-410" as="targetPoint" />
          </mxGeometry>
        </mxCell>
        <mxCell id="MHONRahtCttp2nSO6O5I-15" value="Model Request" style="html=1;verticalAlign=bottom;endArrow=block;edgeStyle=elbowEdgeStyle;elbow=vertical;curved=0;rounded=0;" parent="1" source="MHONRahtCttp2nSO6O5I-11" target="MHONRahtCttp2nSO6O5I-9" edge="1">
          <mxGeometry relative="1" as="geometry">
            <mxPoint x="180" y="-390" as="sourcePoint" />
            <Array as="points">
              <mxPoint x="260" y="-390" />
            </Array>
            <mxPoint x="220" y="-380" as="targetPoint" />
          </mxGeometry>
        </mxCell>
        <mxCell id="MHONRahtCttp2nSO6O5I-16" value="A service" style="shape=umlLifeline;perimeter=lifelinePerimeter;whiteSpace=wrap;html=1;container=0;dropTarget=0;collapsible=0;recursiveResize=0;outlineConnect=0;portConstraint=eastwest;newEdgeStyle={&quot;edgeStyle&quot;:&quot;elbowEdgeStyle&quot;,&quot;elbow&quot;:&quot;vertical&quot;,&quot;curved&quot;:0,&quot;rounded&quot;:0};" parent="1" vertex="1">
          <mxGeometry x="510" y="-510" width="100" height="370" as="geometry" />
        </mxCell>
        <mxCell id="MHONRahtCttp2nSO6O5I-17" value="" style="html=1;points=[];perimeter=orthogonalPerimeter;outlineConnect=0;targetShapes=umlLifeline;portConstraint=eastwest;newEdgeStyle={&quot;edgeStyle&quot;:&quot;elbowEdgeStyle&quot;,&quot;elbow&quot;:&quot;vertical&quot;,&quot;curved&quot;:0,&quot;rounded&quot;:0};" parent="MHONRahtCttp2nSO6O5I-16" vertex="1">
          <mxGeometry x="45" y="150" width="10" height="90" as="geometry" />
        </mxCell>
        <mxCell id="MHONRahtCttp2nSO6O5I-18" value="&amp;nbsp;Requesting&amp;nbsp;&lt;div&gt;Information&lt;/div&gt;" style="html=1;verticalAlign=bottom;endArrow=block;edgeStyle=elbowEdgeStyle;elbow=vertical;curved=0;rounded=0;" parent="1" source="MHONRahtCttp2nSO6O5I-9" target="MHONRahtCttp2nSO6O5I-6" edge="1">
          <mxGeometry relative="1" as="geometry">
            <mxPoint x="295" y="-380" as="sourcePoint" />
            <Array as="points">
              <mxPoint x="360" y="-380" />
              <mxPoint x="385" y="-390" />
            </Array>
            <mxPoint x="405" y="-380" as="targetPoint" />
          </mxGeometry>
        </mxCell>
        <mxCell id="MHONRahtCttp2nSO6O5I-19" value="Service Based&amp;nbsp;&lt;div&gt;Action Request&lt;/div&gt;" style="html=1;verticalAlign=bottom;endArrow=block;edgeStyle=elbowEdgeStyle;elbow=vertical;curved=0;rounded=0;" parent="1" source="MHONRahtCttp2nSO6O5I-6" target="MHONRahtCttp2nSO6O5I-17" edge="1">
          <mxGeometry relative="1" as="geometry">
            <mxPoint x="420" y="-360" as="sourcePoint" />
            <Array as="points">
              <mxPoint x="485" y="-360" />
              <mxPoint x="510" y="-370" />
            </Array>
            <mxPoint x="530" y="-360" as="targetPoint" />
          </mxGeometry>
        </mxCell>
        <mxCell id="MHONRahtCttp2nSO6O5I-20" value="Action Complete&lt;div&gt;Returning Requested Info&lt;/div&gt;" style="html=1;verticalAlign=bottom;endArrow=block;edgeStyle=elbowEdgeStyle;elbow=vertical;curved=0;rounded=0;" parent="1" source="MHONRahtCttp2nSO6O5I-17" target="MHONRahtCttp2nSO6O5I-6" edge="1">
          <mxGeometry relative="1" as="geometry">
            <mxPoint x="540" y="-270" as="sourcePoint" />
            <Array as="points">
              <mxPoint x="480" y="-270" />
            </Array>
            <mxPoint x="420" y="-270" as="targetPoint" />
          </mxGeometry>
        </mxCell>
        <mxCell id="MHONRahtCttp2nSO6O5I-21" value="Request Return" style="html=1;verticalAlign=bottom;endArrow=block;edgeStyle=elbowEdgeStyle;elbow=vertical;curved=0;rounded=0;" parent="1" source="MHONRahtCttp2nSO6O5I-6" target="MHONRahtCttp2nSO6O5I-9" edge="1">
          <mxGeometry relative="1" as="geometry">
            <mxPoint x="380" y="-250" as="sourcePoint" />
            <Array as="points">
              <mxPoint x="320" y="-250" />
            </Array>
            <mxPoint x="250" y="-250" as="targetPoint" />
          </mxGeometry>
        </mxCell>
        <mxCell id="MHONRahtCttp2nSO6O5I-22" value="Request Return" style="html=1;verticalAlign=bottom;endArrow=block;edgeStyle=elbowEdgeStyle;elbow=vertical;curved=0;rounded=0;" parent="1" source="MHONRahtCttp2nSO6O5I-9" target="MHONRahtCttp2nSO6O5I-11" edge="1">
          <mxGeometry relative="1" as="geometry">
            <mxPoint x="260" y="-230" as="sourcePoint" />
            <Array as="points">
              <mxPoint x="195" y="-230" />
            </Array>
            <mxPoint x="170" y="-230" as="targetPoint" />
          </mxGeometry>
        </mxCell>
        <mxCell id="MHONRahtCttp2nSO6O5I-23" value="Request Return" style="html=1;verticalAlign=bottom;endArrow=block;edgeStyle=elbowEdgeStyle;elbow=vertical;curved=0;rounded=0;" parent="1" source="MHONRahtCttp2nSO6O5I-11" target="MHONRahtCttp2nSO6O5I-13" edge="1">
          <mxGeometry relative="1" as="geometry">
            <mxPoint x="160" y="-220" as="sourcePoint" />
            <Array as="points">
              <mxPoint x="75" y="-220" />
            </Array>
            <mxPoint x="50" y="-220" as="targetPoint" />
          </mxGeometry>
        </mxCell>
        <mxCell id="MHONRahtCttp2nSO6O5I-24" value="View is Returned" style="html=1;verticalAlign=bottom;endArrow=block;edgeStyle=elbowEdgeStyle;elbow=vertical;curved=0;rounded=0;" parent="1" source="MHONRahtCttp2nSO6O5I-13" target="MHONRahtCttp2nSO6O5I-2" edge="1">
          <mxGeometry relative="1" as="geometry">
            <mxPoint x="10" y="-210" as="sourcePoint" />
            <Array as="points">
              <mxPoint x="-50" y="-210" />
            </Array>
            <mxPoint x="-120" y="-210" as="targetPoint" />
          </mxGeometry>
        </mxCell>
        <mxCell id="MHONRahtCttp2nSO6O5I-25" value="&lt;font style=&quot;font-size: 24px;&quot;&gt;&lt;b&gt;General Request Sequence with Event Store &amp;amp; DB&lt;/b&gt;&lt;/font&gt;" style="text;html=1;align=center;verticalAlign=middle;resizable=0;points=[];autosize=1;strokeColor=none;fillColor=none;" parent="1" vertex="1">
          <mxGeometry x="-165" y="-560" width="590" height="40" as="geometry" />
        </mxCell>
        <mxCell id="MHONRahtCttp2nSO6O5I-26" value="Event Store" style="shape=umlLifeline;perimeter=lifelinePerimeter;whiteSpace=wrap;html=1;container=0;dropTarget=0;collapsible=0;recursiveResize=0;outlineConnect=0;portConstraint=eastwest;newEdgeStyle={&quot;edgeStyle&quot;:&quot;elbowEdgeStyle&quot;,&quot;elbow&quot;:&quot;vertical&quot;,&quot;curved&quot;:0,&quot;rounded&quot;:0};" parent="1" vertex="1">
          <mxGeometry x="650" y="-510" width="100" height="370" as="geometry" />
        </mxCell>
        <mxCell id="MHONRahtCttp2nSO6O5I-27" value="" style="html=1;points=[];perimeter=orthogonalPerimeter;outlineConnect=0;targetShapes=umlLifeline;portConstraint=eastwest;newEdgeStyle={&quot;edgeStyle&quot;:&quot;elbowEdgeStyle&quot;,&quot;elbow&quot;:&quot;vertical&quot;,&quot;curved&quot;:0,&quot;rounded&quot;:0};" parent="MHONRahtCttp2nSO6O5I-26" vertex="1">
          <mxGeometry x="45" y="160" width="10" height="20" as="geometry" />
        </mxCell>
        <mxCell id="MHONRahtCttp2nSO6O5I-28" value="Database" style="shape=umlLifeline;perimeter=lifelinePerimeter;whiteSpace=wrap;html=1;container=0;dropTarget=0;collapsible=0;recursiveResize=0;outlineConnect=0;portConstraint=eastwest;newEdgeStyle={&quot;edgeStyle&quot;:&quot;elbowEdgeStyle&quot;,&quot;elbow&quot;:&quot;vertical&quot;,&quot;curved&quot;:0,&quot;rounded&quot;:0};" parent="1" vertex="1">
          <mxGeometry x="795" y="-510" width="100" height="370" as="geometry" />
        </mxCell>
        <mxCell id="MHONRahtCttp2nSO6O5I-29" value="" style="html=1;points=[];perimeter=orthogonalPerimeter;outlineConnect=0;targetShapes=umlLifeline;portConstraint=eastwest;newEdgeStyle={&quot;edgeStyle&quot;:&quot;elbowEdgeStyle&quot;,&quot;elbow&quot;:&quot;vertical&quot;,&quot;curved&quot;:0,&quot;rounded&quot;:0};" parent="MHONRahtCttp2nSO6O5I-28" vertex="1">
          <mxGeometry x="45" y="200" width="10" height="30" as="geometry" />
        </mxCell>
        <mxCell id="MHONRahtCttp2nSO6O5I-30" value="Store Series of events" style="html=1;verticalAlign=bottom;endArrow=block;edgeStyle=elbowEdgeStyle;elbow=vertical;curved=0;rounded=0;" parent="1" source="MHONRahtCttp2nSO6O5I-17" target="MHONRahtCttp2nSO6O5I-27" edge="1">
          <mxGeometry relative="1" as="geometry">
            <mxPoint x="570" y="-350" as="sourcePoint" />
            <Array as="points">
              <mxPoint x="640" y="-350" />
              <mxPoint x="665" y="-360" />
            </Array>
            <mxPoint x="710" y="-350" as="targetPoint" />
          </mxGeometry>
        </mxCell>
        <mxCell id="MHONRahtCttp2nSO6O5I-31" value="Success" style="html=1;verticalAlign=bottom;endArrow=block;edgeStyle=elbowEdgeStyle;elbow=vertical;curved=0;rounded=0;" parent="1" source="MHONRahtCttp2nSO6O5I-27" target="MHONRahtCttp2nSO6O5I-17" edge="1">
          <mxGeometry y="1" relative="1" as="geometry">
            <mxPoint x="680" y="-330.5" as="sourcePoint" />
            <Array as="points">
              <mxPoint x="645" y="-330.5" />
            </Array>
            <mxPoint x="580" y="-330.5" as="targetPoint" />
            <mxPoint as="offset" />
          </mxGeometry>
        </mxCell>
        <mxCell id="MHONRahtCttp2nSO6O5I-32" value="Information Sent to DB / DB Query" style="html=1;verticalAlign=bottom;endArrow=block;edgeStyle=elbowEdgeStyle;elbow=vertical;curved=0;rounded=0;" parent="1" source="MHONRahtCttp2nSO6O5I-17" target="MHONRahtCttp2nSO6O5I-29" edge="1">
          <mxGeometry relative="1" as="geometry">
            <mxPoint x="580" y="-310" as="sourcePoint" />
            <Array as="points">
              <mxPoint x="655" y="-310" />
              <mxPoint x="680" y="-320" />
            </Array>
            <mxPoint x="710" y="-310" as="targetPoint" />
          </mxGeometry>
        </mxCell>
        <mxCell id="MHONRahtCttp2nSO6O5I-33" value="Query Return" style="html=1;verticalAlign=bottom;endArrow=block;edgeStyle=elbowEdgeStyle;elbow=vertical;curved=0;rounded=0;" parent="1" source="MHONRahtCttp2nSO6O5I-29" target="MHONRahtCttp2nSO6O5I-17" edge="1">
          <mxGeometry y="1" relative="1" as="geometry">
            <mxPoint x="790" y="-279.5" as="sourcePoint" />
            <Array as="points">
              <mxPoint x="740" y="-280" />
            </Array>
            <mxPoint x="660" y="-279.5" as="targetPoint" />
            <mxPoint as="offset" />
          </mxGeometry>
        </mxCell>
        <mxCell id="MHONRahtCttp2nSO6O5I-35" value="Application" style="shape=umlLifeline;perimeter=lifelinePerimeter;whiteSpace=wrap;html=1;container=0;dropTarget=0;collapsible=0;recursiveResize=0;outlineConnect=0;portConstraint=eastwest;newEdgeStyle={&quot;edgeStyle&quot;:&quot;elbowEdgeStyle&quot;,&quot;elbow&quot;:&quot;vertical&quot;,&quot;curved&quot;:0,&quot;rounded&quot;:0};" parent="1" vertex="1">
          <mxGeometry x="-190" y="-1070" width="100" height="430" as="geometry" />
        </mxCell>
        <mxCell id="MHONRahtCttp2nSO6O5I-36" value="" style="html=1;points=[];perimeter=orthogonalPerimeter;outlineConnect=0;targetShapes=umlLifeline;portConstraint=eastwest;newEdgeStyle={&quot;edgeStyle&quot;:&quot;elbowEdgeStyle&quot;,&quot;elbow&quot;:&quot;vertical&quot;,&quot;curved&quot;:0,&quot;rounded&quot;:0};" parent="MHONRahtCttp2nSO6O5I-35" vertex="1">
          <mxGeometry x="45" y="70" width="10" height="340" as="geometry" />
        </mxCell>
        <mxCell id="MHONRahtCttp2nSO6O5I-37" value="" style="html=1;verticalAlign=bottom;startArrow=oval;endArrow=block;startSize=8;edgeStyle=elbowEdgeStyle;elbow=vertical;curved=0;rounded=0;" parent="MHONRahtCttp2nSO6O5I-35" target="MHONRahtCttp2nSO6O5I-36" edge="1">
          <mxGeometry relative="1" as="geometry">
            <mxPoint x="-80" y="70" as="sourcePoint" />
            <Array as="points">
              <mxPoint x="-80" y="70" />
            </Array>
          </mxGeometry>
        </mxCell>
        <mxCell id="MHONRahtCttp2nSO6O5I-38" value="User Action" style="edgeLabel;html=1;align=center;verticalAlign=middle;resizable=0;points=[];" parent="MHONRahtCttp2nSO6O5I-37" vertex="1" connectable="0">
          <mxGeometry x="0.0331" y="1" relative="1" as="geometry">
            <mxPoint x="-4" y="-9" as="offset" />
          </mxGeometry>
        </mxCell>
        <mxCell id="MHONRahtCttp2nSO6O5I-39" value="API Gateway" style="shape=umlLifeline;perimeter=lifelinePerimeter;whiteSpace=wrap;html=1;container=0;dropTarget=0;collapsible=0;recursiveResize=0;outlineConnect=0;portConstraint=eastwest;newEdgeStyle={&quot;edgeStyle&quot;:&quot;elbowEdgeStyle&quot;,&quot;elbow&quot;:&quot;vertical&quot;,&quot;curved&quot;:0,&quot;rounded&quot;:0};" parent="1" vertex="1">
          <mxGeometry x="300" y="-1070" width="100" height="430" as="geometry" />
        </mxCell>
        <mxCell id="MHONRahtCttp2nSO6O5I-40" value="" style="html=1;points=[];perimeter=orthogonalPerimeter;outlineConnect=0;targetShapes=umlLifeline;portConstraint=eastwest;newEdgeStyle={&quot;edgeStyle&quot;:&quot;elbowEdgeStyle&quot;,&quot;elbow&quot;:&quot;vertical&quot;,&quot;curved&quot;:0,&quot;rounded&quot;:0};" parent="MHONRahtCttp2nSO6O5I-39" vertex="1">
          <mxGeometry x="45" y="130" width="10" height="230" as="geometry" />
        </mxCell>
        <mxCell id="MHONRahtCttp2nSO6O5I-41" value="View Request" style="html=1;verticalAlign=bottom;endArrow=block;edgeStyle=elbowEdgeStyle;elbow=horizontal;curved=0;rounded=0;" parent="1" source="MHONRahtCttp2nSO6O5I-36" target="MHONRahtCttp2nSO6O5I-47" edge="1">
          <mxGeometry relative="1" as="geometry">
            <mxPoint x="-120" y="-990" as="sourcePoint" />
            <Array as="points">
              <mxPoint x="-70" y="-990" />
            </Array>
            <mxPoint x="-50" y="-990" as="targetPoint" />
          </mxGeometry>
        </mxCell>
        <mxCell id="MHONRahtCttp2nSO6O5I-42" value="Model" style="shape=umlLifeline;perimeter=lifelinePerimeter;whiteSpace=wrap;html=1;container=0;dropTarget=0;collapsible=0;recursiveResize=0;outlineConnect=0;portConstraint=eastwest;newEdgeStyle={&quot;edgeStyle&quot;:&quot;elbowEdgeStyle&quot;,&quot;elbow&quot;:&quot;vertical&quot;,&quot;curved&quot;:0,&quot;rounded&quot;:0};" parent="1" vertex="1">
          <mxGeometry x="180" y="-1070" width="100" height="430" as="geometry" />
        </mxCell>
        <mxCell id="MHONRahtCttp2nSO6O5I-43" value="" style="html=1;points=[];perimeter=orthogonalPerimeter;outlineConnect=0;targetShapes=umlLifeline;portConstraint=eastwest;newEdgeStyle={&quot;edgeStyle&quot;:&quot;elbowEdgeStyle&quot;,&quot;elbow&quot;:&quot;vertical&quot;,&quot;curved&quot;:0,&quot;rounded&quot;:0};" parent="MHONRahtCttp2nSO6O5I-42" vertex="1">
          <mxGeometry x="45" y="120" width="10" height="250" as="geometry" />
        </mxCell>
        <mxCell id="MHONRahtCttp2nSO6O5I-44" value="Controller" style="shape=umlLifeline;perimeter=lifelinePerimeter;whiteSpace=wrap;html=1;container=0;dropTarget=0;collapsible=0;recursiveResize=0;outlineConnect=0;portConstraint=eastwest;newEdgeStyle={&quot;edgeStyle&quot;:&quot;elbowEdgeStyle&quot;,&quot;elbow&quot;:&quot;vertical&quot;,&quot;curved&quot;:0,&quot;rounded&quot;:0};" parent="1" vertex="1">
          <mxGeometry x="60" y="-1070" width="100" height="430" as="geometry" />
        </mxCell>
        <mxCell id="MHONRahtCttp2nSO6O5I-45" value="" style="html=1;points=[];perimeter=orthogonalPerimeter;outlineConnect=0;targetShapes=umlLifeline;portConstraint=eastwest;newEdgeStyle={&quot;edgeStyle&quot;:&quot;elbowEdgeStyle&quot;,&quot;elbow&quot;:&quot;vertical&quot;,&quot;curved&quot;:0,&quot;rounded&quot;:0};" parent="MHONRahtCttp2nSO6O5I-44" vertex="1">
          <mxGeometry x="45" y="100" width="10" height="280" as="geometry" />
        </mxCell>
        <mxCell id="MHONRahtCttp2nSO6O5I-46" value="View" style="shape=umlLifeline;perimeter=lifelinePerimeter;whiteSpace=wrap;html=1;container=0;dropTarget=0;collapsible=0;recursiveResize=0;outlineConnect=0;portConstraint=eastwest;newEdgeStyle={&quot;edgeStyle&quot;:&quot;elbowEdgeStyle&quot;,&quot;elbow&quot;:&quot;vertical&quot;,&quot;curved&quot;:0,&quot;rounded&quot;:0};" parent="1" vertex="1">
          <mxGeometry x="-70" y="-1070" width="100" height="430" as="geometry" />
        </mxCell>
        <mxCell id="MHONRahtCttp2nSO6O5I-47" value="" style="html=1;points=[];perimeter=orthogonalPerimeter;outlineConnect=0;targetShapes=umlLifeline;portConstraint=eastwest;newEdgeStyle={&quot;edgeStyle&quot;:&quot;elbowEdgeStyle&quot;,&quot;elbow&quot;:&quot;vertical&quot;,&quot;curved&quot;:0,&quot;rounded&quot;:0};" parent="MHONRahtCttp2nSO6O5I-46" vertex="1">
          <mxGeometry x="45" y="80" width="10" height="320" as="geometry" />
        </mxCell>
        <mxCell id="MHONRahtCttp2nSO6O5I-48" value="Model Request Sent to&lt;div&gt;Controller&lt;/div&gt;" style="html=1;verticalAlign=bottom;endArrow=block;edgeStyle=elbowEdgeStyle;elbow=vertical;curved=0;rounded=0;" parent="1" source="MHONRahtCttp2nSO6O5I-47" target="MHONRahtCttp2nSO6O5I-45" edge="1">
          <mxGeometry relative="1" as="geometry">
            <mxPoint y="-970" as="sourcePoint" />
            <Array as="points">
              <mxPoint x="65" y="-970" />
            </Array>
            <mxPoint x="90" y="-970" as="targetPoint" />
          </mxGeometry>
        </mxCell>
        <mxCell id="MHONRahtCttp2nSO6O5I-49" value="Model Request" style="html=1;verticalAlign=bottom;endArrow=block;edgeStyle=elbowEdgeStyle;elbow=vertical;curved=0;rounded=0;" parent="1" source="MHONRahtCttp2nSO6O5I-45" target="MHONRahtCttp2nSO6O5I-43" edge="1">
          <mxGeometry relative="1" as="geometry">
            <mxPoint x="120" y="-950" as="sourcePoint" />
            <Array as="points">
              <mxPoint x="200" y="-950" />
            </Array>
            <mxPoint x="160" y="-940" as="targetPoint" />
          </mxGeometry>
        </mxCell>
        <mxCell id="MHONRahtCttp2nSO6O5I-50" value="First Service" style="shape=umlLifeline;perimeter=lifelinePerimeter;whiteSpace=wrap;html=1;container=0;dropTarget=0;collapsible=0;recursiveResize=0;outlineConnect=0;portConstraint=eastwest;newEdgeStyle={&quot;edgeStyle&quot;:&quot;elbowEdgeStyle&quot;,&quot;elbow&quot;:&quot;vertical&quot;,&quot;curved&quot;:0,&quot;rounded&quot;:0};" parent="1" vertex="1">
          <mxGeometry x="440" y="-1070" width="100" height="430" as="geometry" />
        </mxCell>
        <mxCell id="MHONRahtCttp2nSO6O5I-51" value="&lt;span style=&quot;color: rgba(0, 0, 0, 0); font-family: monospace; font-size: 0px; text-align: start;&quot;&gt;%3CmxGraphModel%3E%3Croot%3E%3CmxCell%20id%3D%220%22%2F%3E%3CmxCell%20id%3D%221%22%20parent%3D%220%22%2F%3E%3CmxCell%20id%3D%222%22%20value%3D%22Request%20Return%22%20style%3D%22html%3D1%3BverticalAlign%3Dbottom%3BendArrow%3Dblock%3BedgeStyle%3DelbowEdgeStyle%3Belbow%3Dvertical%3Bcurved%3D0%3Brounded%3D0%3B%22%20edge%3D%221%22%20parent%3D%221%22%3E%3CmxGeometry%20relative%3D%221%22%20as%3D%22geometry%22%3E%3CmxPoint%20x%3D%22345%22%20y%3D%22-710%22%20as%3D%22sourcePoint%22%2F%3E%3CArray%20as%3D%22points%22%3E%3CmxPoint%20x%3D%22260%22%20y%3D%22-710%22%2F%3E%3C%2FArray%3E%3CmxPoint%20x%3D%22235%22%20y%3D%22-710%22%20as%3D%22targetPoint%22%2F%3E%3C%2FmxGeometry%3E%3C%2FmxCell%3E%3C%2Froot%3E%3C%2FmxGraphModel%3E&lt;/span&gt;" style="html=1;points=[];perimeter=orthogonalPerimeter;outlineConnect=0;targetShapes=umlLifeline;portConstraint=eastwest;newEdgeStyle={&quot;edgeStyle&quot;:&quot;elbowEdgeStyle&quot;,&quot;elbow&quot;:&quot;vertical&quot;,&quot;curved&quot;:0,&quot;rounded&quot;:0};" parent="MHONRahtCttp2nSO6O5I-50" vertex="1">
          <mxGeometry x="45" y="140" width="10" height="200" as="geometry" />
        </mxCell>
        <mxCell id="MHONRahtCttp2nSO6O5I-52" value="&amp;nbsp;Requesting&amp;nbsp;&lt;div&gt;Information&lt;/div&gt;" style="html=1;verticalAlign=bottom;endArrow=block;edgeStyle=elbowEdgeStyle;elbow=vertical;curved=0;rounded=0;" parent="1" source="MHONRahtCttp2nSO6O5I-43" target="MHONRahtCttp2nSO6O5I-40" edge="1">
          <mxGeometry relative="1" as="geometry">
            <mxPoint x="235" y="-940" as="sourcePoint" />
            <Array as="points">
              <mxPoint x="300" y="-940" />
              <mxPoint x="325" y="-950" />
            </Array>
            <mxPoint x="345" y="-940" as="targetPoint" />
          </mxGeometry>
        </mxCell>
        <mxCell id="MHONRahtCttp2nSO6O5I-55" value="Request Return" style="html=1;verticalAlign=bottom;endArrow=block;edgeStyle=elbowEdgeStyle;elbow=vertical;curved=0;rounded=0;" parent="1" source="MHONRahtCttp2nSO6O5I-40" target="MHONRahtCttp2nSO6O5I-43" edge="1">
          <mxGeometry relative="1" as="geometry">
            <mxPoint x="320" y="-810" as="sourcePoint" />
            <Array as="points">
              <mxPoint x="260" y="-710" />
            </Array>
            <mxPoint x="190" y="-810" as="targetPoint" />
          </mxGeometry>
        </mxCell>
        <mxCell id="MHONRahtCttp2nSO6O5I-56" value="Request Return" style="html=1;verticalAlign=bottom;endArrow=block;edgeStyle=elbowEdgeStyle;elbow=vertical;curved=0;rounded=0;" parent="1" source="MHONRahtCttp2nSO6O5I-43" target="MHONRahtCttp2nSO6O5I-45" edge="1">
          <mxGeometry relative="1" as="geometry">
            <mxPoint x="200" y="-790" as="sourcePoint" />
            <Array as="points">
              <mxPoint x="140" y="-700" />
            </Array>
            <mxPoint x="110" y="-790" as="targetPoint" />
          </mxGeometry>
        </mxCell>
        <mxCell id="MHONRahtCttp2nSO6O5I-57" value="Request Return" style="html=1;verticalAlign=bottom;endArrow=block;edgeStyle=elbowEdgeStyle;elbow=vertical;curved=0;rounded=0;" parent="1" edge="1">
          <mxGeometry relative="1" as="geometry">
            <mxPoint x="105" y="-690.0000000000002" as="sourcePoint" />
            <Array as="points">
              <mxPoint x="15" y="-690" />
            </Array>
            <mxPoint x="-15" y="-690.0000000000002" as="targetPoint" />
          </mxGeometry>
        </mxCell>
        <mxCell id="MHONRahtCttp2nSO6O5I-58" value="View is Returned" style="html=1;verticalAlign=bottom;endArrow=block;edgeStyle=elbowEdgeStyle;elbow=vertical;curved=0;rounded=0;" parent="1" edge="1">
          <mxGeometry relative="1" as="geometry">
            <mxPoint x="-25" y="-670.0000000000002" as="sourcePoint" />
            <Array as="points">
              <mxPoint x="-110" y="-670" />
            </Array>
            <mxPoint x="-135" y="-670.0000000000002" as="targetPoint" />
          </mxGeometry>
        </mxCell>
        <mxCell id="MHONRahtCttp2nSO6O5I-59" value="&lt;font style=&quot;font-size: 24px;&quot;&gt;&lt;b&gt;General Request Sequence with PubSub Communication&lt;/b&gt;&lt;/font&gt;" style="text;html=1;align=center;verticalAlign=middle;resizable=0;points=[];autosize=1;strokeColor=none;fillColor=none;" parent="1" vertex="1">
          <mxGeometry x="-215" y="-1130" width="670" height="40" as="geometry" />
        </mxCell>
        <mxCell id="MHONRahtCttp2nSO6O5I-68" value="PubSub" style="shape=umlLifeline;perimeter=lifelinePerimeter;whiteSpace=wrap;html=1;container=0;dropTarget=0;collapsible=0;recursiveResize=0;outlineConnect=0;portConstraint=eastwest;newEdgeStyle={&quot;edgeStyle&quot;:&quot;elbowEdgeStyle&quot;,&quot;elbow&quot;:&quot;vertical&quot;,&quot;curved&quot;:0,&quot;rounded&quot;:0};" parent="1" vertex="1">
          <mxGeometry x="570" y="-1070" width="100" height="430" as="geometry" />
        </mxCell>
        <mxCell id="MHONRahtCttp2nSO6O5I-76" value="&lt;span style=&quot;color: rgba(0, 0, 0, 0); font-family: monospace; font-size: 0px; text-align: start;&quot;&gt;%3CmxGraphModel%3E%3Croot%3E%3CmxCell%20id%3D%220%22%2F%3E%3CmxCell%20id%3D%221%22%20parent%3D%220%22%2F%3E%3CmxCell%20id%3D%222%22%20value%3D%22Request%20Return%22%20style%3D%22html%3D1%3BverticalAlign%3Dbottom%3BendArrow%3Dblock%3BedgeStyle%3DelbowEdgeStyle%3Belbow%3Dvertical%3Bcurved%3D0%3Brounded%3D0%3B%22%20edge%3D%221%22%20parent%3D%221%22%3E%3CmxGeometry%20relative%3D%221%22%20as%3D%22geometry%22%3E%3CmxPoint%20x%3D%22345%22%20y%3D%22-710%22%20as%3D%22sourcePoint%22%2F%3E%3CArray%20as%3D%22points%22%3E%3CmxPoint%20x%3D%22260%22%20y%3D%22-710%22%2F%3E%3C%2FArray%3E%3CmxPoint%20x%3D%22235%22%20y%3D%22-710%22%20as%3D%22targetPoint%22%2F%3E%3C%2FmxGeometry%3E%3C%2FmxCell%3E%3C%2Froot%3E%3C%2FmxGraphModel%3E&lt;/span&gt;" style="html=1;points=[];perimeter=orthogonalPerimeter;outlineConnect=0;targetShapes=umlLifeline;portConstraint=eastwest;newEdgeStyle={&quot;edgeStyle&quot;:&quot;elbowEdgeStyle&quot;,&quot;elbow&quot;:&quot;vertical&quot;,&quot;curved&quot;:0,&quot;rounded&quot;:0};" parent="MHONRahtCttp2nSO6O5I-68" vertex="1">
          <mxGeometry x="45" y="160" width="10" height="160" as="geometry" />
        </mxCell>
        <mxCell id="MHONRahtCttp2nSO6O5I-70" value="Second Service" style="shape=umlLifeline;perimeter=lifelinePerimeter;whiteSpace=wrap;html=1;container=0;dropTarget=0;collapsible=0;recursiveResize=0;outlineConnect=0;portConstraint=eastwest;newEdgeStyle={&quot;edgeStyle&quot;:&quot;elbowEdgeStyle&quot;,&quot;elbow&quot;:&quot;vertical&quot;,&quot;curved&quot;:0,&quot;rounded&quot;:0};" parent="1" vertex="1">
          <mxGeometry x="720" y="-1070" width="100" height="430" as="geometry" />
        </mxCell>
        <mxCell id="MHONRahtCttp2nSO6O5I-77" value="&lt;span style=&quot;color: rgba(0, 0, 0, 0); font-family: monospace; font-size: 0px; text-align: start;&quot;&gt;%3CmxGraphModel%3E%3Croot%3E%3CmxCell%20id%3D%220%22%2F%3E%3CmxCell%20id%3D%221%22%20parent%3D%220%22%2F%3E%3CmxCell%20id%3D%222%22%20value%3D%22Request%20Return%22%20style%3D%22html%3D1%3BverticalAlign%3Dbottom%3BendArrow%3Dblock%3BedgeStyle%3DelbowEdgeStyle%3Belbow%3Dvertical%3Bcurved%3D0%3Brounded%3D0%3B%22%20edge%3D%221%22%20parent%3D%221%22%3E%3CmxGeometry%20relative%3D%221%22%20as%3D%22geometry%22%3E%3CmxPoint%20x%3D%22345%22%20y%3D%22-710%22%20as%3D%22sourcePoint%22%2F%3E%3CArray%20as%3D%22points%22%3E%3CmxPoint%20x%3D%22260%22%20y%3D%22-710%22%2F%3E%3C%2FArray%3E%3CmxPoint%20x%3D%22235%22%20y%3D%22-710%22%20as%3D%22targetPoint%22%2F%3E%3C%2FmxGeometry%3E%3C%2FmxCell%3E%3C%2Froot%3E%3C%2FmxGraphModel%3E&lt;/span&gt;" style="html=1;points=[];perimeter=orthogonalPerimeter;outlineConnect=0;targetShapes=umlLifeline;portConstraint=eastwest;newEdgeStyle={&quot;edgeStyle&quot;:&quot;elbowEdgeStyle&quot;,&quot;elbow&quot;:&quot;vertical&quot;,&quot;curved&quot;:0,&quot;rounded&quot;:0};" parent="MHONRahtCttp2nSO6O5I-70" vertex="1">
          <mxGeometry x="45" y="180" width="10" height="120" as="geometry" />
        </mxCell>
        <mxCell id="MHONRahtCttp2nSO6O5I-72" value="Service 1 Based request" style="html=1;verticalAlign=bottom;endArrow=block;edgeStyle=elbowEdgeStyle;elbow=vertical;curved=0;rounded=0;" parent="1" source="MHONRahtCttp2nSO6O5I-40" target="MHONRahtCttp2nSO6O5I-51" edge="1">
          <mxGeometry relative="1" as="geometry">
            <mxPoint x="355" y="-930" as="sourcePoint" />
            <Array as="points">
              <mxPoint x="420" y="-930" />
              <mxPoint x="445" y="-940" />
            </Array>
            <mxPoint x="465" y="-930" as="targetPoint" />
          </mxGeometry>
        </mxCell>
        <mxCell id="MHONRahtCttp2nSO6O5I-73" value="Request Return" style="html=1;verticalAlign=bottom;endArrow=block;edgeStyle=elbowEdgeStyle;elbow=vertical;curved=0;rounded=0;" parent="1" source="MHONRahtCttp2nSO6O5I-51" target="MHONRahtCttp2nSO6O5I-40" edge="1">
          <mxGeometry relative="1" as="geometry">
            <mxPoint x="470" y="-730" as="sourcePoint" />
            <Array as="points">
              <mxPoint x="385" y="-730" />
            </Array>
            <mxPoint x="360" y="-730" as="targetPoint" />
            <mxPoint as="offset" />
          </mxGeometry>
        </mxCell>
        <mxCell id="MHONRahtCttp2nSO6O5I-80" value="Message passed" style="html=1;verticalAlign=bottom;endArrow=block;edgeStyle=elbowEdgeStyle;elbow=vertical;curved=0;rounded=0;" parent="1" source="MHONRahtCttp2nSO6O5I-51" target="MHONRahtCttp2nSO6O5I-76" edge="1">
          <mxGeometry relative="1" as="geometry">
            <mxPoint x="480" y="-910" as="sourcePoint" />
            <Array as="points">
              <mxPoint x="545" y="-910" />
              <mxPoint x="570" y="-920" />
            </Array>
            <mxPoint x="610" y="-910" as="targetPoint" />
          </mxGeometry>
        </mxCell>
        <mxCell id="MHONRahtCttp2nSO6O5I-81" value="Service 2 based request" style="html=1;verticalAlign=bottom;endArrow=block;edgeStyle=elbowEdgeStyle;elbow=vertical;curved=0;rounded=0;" parent="1" source="MHONRahtCttp2nSO6O5I-76" target="MHONRahtCttp2nSO6O5I-77" edge="1">
          <mxGeometry relative="1" as="geometry">
            <mxPoint x="615" y="-890" as="sourcePoint" />
            <Array as="points">
              <mxPoint x="665" y="-890" />
              <mxPoint x="690" y="-900" />
            </Array>
            <mxPoint x="735" y="-890" as="targetPoint" />
          </mxGeometry>
        </mxCell>
        <mxCell id="MHONRahtCttp2nSO6O5I-82" value="Request Return" style="html=1;verticalAlign=bottom;endArrow=block;edgeStyle=elbowEdgeStyle;elbow=vertical;curved=0;rounded=0;" parent="1" source="MHONRahtCttp2nSO6O5I-77" target="MHONRahtCttp2nSO6O5I-76" edge="1">
          <mxGeometry relative="1" as="geometry">
            <mxPoint x="740" y="-770" as="sourcePoint" />
            <Array as="points">
              <mxPoint x="640" y="-770" />
            </Array>
            <mxPoint x="610" y="-770" as="targetPoint" />
            <mxPoint as="offset" />
          </mxGeometry>
        </mxCell>
        <mxCell id="MHONRahtCttp2nSO6O5I-83" value="Message Return" style="html=1;verticalAlign=bottom;endArrow=block;edgeStyle=elbowEdgeStyle;elbow=vertical;curved=0;rounded=0;" parent="1" source="MHONRahtCttp2nSO6O5I-76" target="MHONRahtCttp2nSO6O5I-51" edge="1">
          <mxGeometry relative="1" as="geometry">
            <mxPoint x="600" y="-750" as="sourcePoint" />
            <Array as="points">
              <mxPoint x="500" y="-750" />
            </Array>
            <mxPoint x="470" y="-750" as="targetPoint" />
            <mxPoint as="offset" />
          </mxGeometry>
        </mxCell>
        <mxCell id="8xJ4jHmYWffcwGeYheyU-1" value="PubSub" style="shape=umlLifeline;perimeter=lifelinePerimeter;whiteSpace=wrap;html=1;container=0;dropTarget=0;collapsible=0;recursiveResize=0;outlineConnect=0;portConstraint=eastwest;newEdgeStyle={&quot;edgeStyle&quot;:&quot;elbowEdgeStyle&quot;,&quot;elbow&quot;:&quot;vertical&quot;,&quot;curved&quot;:0,&quot;rounded&quot;:0};" vertex="1" parent="1">
          <mxGeometry x="415" y="2650" width="100" height="360" as="geometry" />
        </mxCell>
        <mxCell id="8xJ4jHmYWffcwGeYheyU-2" value="" style="html=1;points=[];perimeter=orthogonalPerimeter;outlineConnect=0;targetShapes=umlLifeline;portConstraint=eastwest;newEdgeStyle={&quot;edgeStyle&quot;:&quot;elbowEdgeStyle&quot;,&quot;elbow&quot;:&quot;vertical&quot;,&quot;curved&quot;:0,&quot;rounded&quot;:0};" vertex="1" parent="8xJ4jHmYWffcwGeYheyU-1">
          <mxGeometry x="45" y="200" width="10" height="70" as="geometry" />
        </mxCell>
        <mxCell id="8xJ4jHmYWffcwGeYheyU-3" value="Analytic service" style="shape=umlLifeline;perimeter=lifelinePerimeter;whiteSpace=wrap;html=1;container=0;dropTarget=0;collapsible=0;recursiveResize=0;outlineConnect=0;portConstraint=eastwest;newEdgeStyle={&quot;edgeStyle&quot;:&quot;elbowEdgeStyle&quot;,&quot;elbow&quot;:&quot;vertical&quot;,&quot;curved&quot;:0,&quot;rounded&quot;:0};" vertex="1" parent="1">
          <mxGeometry x="550" y="2650" width="100" height="360" as="geometry" />
        </mxCell>
        <mxCell id="8xJ4jHmYWffcwGeYheyU-4" value="" style="html=1;points=[];perimeter=orthogonalPerimeter;outlineConnect=0;targetShapes=umlLifeline;portConstraint=eastwest;newEdgeStyle={&quot;edgeStyle&quot;:&quot;elbowEdgeStyle&quot;,&quot;elbow&quot;:&quot;vertical&quot;,&quot;curved&quot;:0,&quot;rounded&quot;:0};" vertex="1" parent="8xJ4jHmYWffcwGeYheyU-3">
          <mxGeometry x="45" y="210" width="10" height="40" as="geometry" />
        </mxCell>
        <mxCell id="8xJ4jHmYWffcwGeYheyU-5" value="Registration data to analyze" style="html=1;verticalAlign=bottom;endArrow=block;edgeStyle=elbowEdgeStyle;elbow=horizontal;curved=0;rounded=0;" edge="1" parent="1" source="PMBpUnbIwR8fAhCMbHkn-240" target="8xJ4jHmYWffcwGeYheyU-2">
          <mxGeometry x="0.561" relative="1" as="geometry">
            <mxPoint x="47.5" y="2850" as="sourcePoint" />
            <Array as="points">
              <mxPoint x="112.5" y="2850" />
            </Array>
            <mxPoint x="182.5" y="2850" as="targetPoint" />
            <mxPoint as="offset" />
          </mxGeometry>
        </mxCell>
        <mxCell id="8xJ4jHmYWffcwGeYheyU-6" value="Information collected" style="html=1;verticalAlign=bottom;endArrow=block;edgeStyle=elbowEdgeStyle;elbow=vertical;curved=0;rounded=0;" edge="1" parent="1" source="8xJ4jHmYWffcwGeYheyU-2" target="8xJ4jHmYWffcwGeYheyU-4">
          <mxGeometry relative="1" as="geometry">
            <mxPoint x="440" y="2860" as="sourcePoint" />
            <Array as="points">
              <mxPoint x="495" y="2860" />
            </Array>
            <mxPoint x="590" y="2860" as="targetPoint" />
          </mxGeometry>
        </mxCell>
        <mxCell id="8xJ4jHmYWffcwGeYheyU-7" value="Success Callback" style="html=1;verticalAlign=bottom;endArrow=block;edgeStyle=elbowEdgeStyle;elbow=vertical;curved=0;rounded=0;" edge="1" parent="1" source="8xJ4jHmYWffcwGeYheyU-4" target="8xJ4jHmYWffcwGeYheyU-2">
          <mxGeometry x="-0.0667" relative="1" as="geometry">
            <mxPoint x="580" y="2900" as="sourcePoint" />
            <Array as="points">
              <mxPoint x="515" y="2900" />
            </Array>
            <mxPoint x="430" y="2900" as="targetPoint" />
            <mxPoint as="offset" />
          </mxGeometry>
        </mxCell>
        <mxCell id="8xJ4jHmYWffcwGeYheyU-8" value="Success Callback" style="html=1;verticalAlign=bottom;endArrow=block;edgeStyle=elbowEdgeStyle;elbow=vertical;curved=0;rounded=0;" edge="1" parent="1" source="8xJ4jHmYWffcwGeYheyU-2" target="PMBpUnbIwR8fAhCMbHkn-240">
          <mxGeometry x="-0.0714" relative="1" as="geometry">
            <mxPoint x="405" y="2920" as="sourcePoint" />
            <Array as="points">
              <mxPoint x="280" y="2920" />
            </Array>
            <mxPoint x="130" y="2920" as="targetPoint" />
            <mxPoint as="offset" />
          </mxGeometry>
        </mxCell>
      </root>
    </mxGraphModel>
  </diagram>
</mxfile>
